<?xml version="1.0" standalone="no"?>
<!DOCTYPE svg PUBLIC "-//W3C//DTD SVG 20010904//EN"
 "http://www.w3.org/TR/2001/REC-SVG-20010904/DTD/svg10.dtd">
<svg version="1.0" xmlns="http://www.w3.org/2000/svg"
 width="1280.000000pt" height="1239.000000pt" viewBox="0 0 1280.000000 1239.000000"
 preserveAspectRatio="xMidYMid meet">
<metadata>
Created by potrace 1.15, written by Peter Selinger 2001-2017
</metadata>
<g transform="translate(0.000000,1239.000000) scale(0.100000,-0.100000)"
fill="#000000" stroke="none">
<path d="M6376 12347 c-39 -104 -42 -178 -11 -347 7 -41 17 -128 21 -192 4
-65 10 -118 14 -118 11 0 20 55 20 123 0 33 9 114 21 181 26 151 22 283 -11
351 -12 25 -25 45 -30 45 -4 0 -15 -19 -24 -43z"/>
<path d="M6550 12142 c-41 -20 -70 -71 -70 -124 0 -44 14 -48 54 -17 45 36 89
146 61 156 -5 1 -26 -5 -45 -15z"/>
<path d="M6205 12118 c17 -76 65 -138 107 -138 20 0 22 16 9 74 -12 51 -56 96
-94 96 -27 0 -28 -2 -22 -32z"/>
<path d="M5897 12053 c-13 -12 -7 -94 8 -122 14 -29 91 -101 107 -101 4 0 8
21 8 48 0 64 -39 146 -79 166 -34 18 -35 18 -44 9z"/>
<path d="M6845 12029 c-47 -42 -86 -175 -56 -193 13 -8 93 55 108 84 7 14 13
51 13 83 0 68 -12 73 -65 26z"/>
<path d="M6210 11938 c1 -34 23 -105 38 -122 18 -20 81 -50 89 -42 3 2 2 24
-2 48 -6 32 -19 54 -50 86 -41 41 -75 55 -75 30z"/>
<path d="M6520 11911 c-35 -37 -70 -125 -55 -139 9 -10 89 36 103 59 7 11 16
43 19 70 5 43 3 49 -12 49 -10 0 -35 -17 -55 -39z"/>
<path d="M5724 11889 c-30 -8 -84 -53 -84 -69 0 -13 23 -27 74 -44 62 -20 99
-20 137 0 78 40 275 -66 421 -226 36 -40 68 -68 72 -62 9 14 -46 91 -108 152
-59 57 -66 70 -40 70 14 0 15 8 9 47 -9 64 -29 100 -68 123 -18 11 -35 20 -39
20 -13 0 -9 -79 6 -115 17 -40 10 -43 -36 -16 -18 11 -68 31 -110 46 -43 14
-94 37 -114 50 -20 14 -43 25 -50 25 -7 0 -18 2 -26 4 -7 2 -27 0 -44 -5z"/>
<path d="M6674 11886 c-37 -17 -74 -85 -74 -139 0 -28 4 -37 17 -37 12 0 0
-18 -38 -57 -74 -77 -119 -137 -119 -159 0 -12 28 10 88 69 102 102 164 149
247 187 82 38 127 45 164 25 17 -8 45 -15 63 -14 41 0 119 31 132 52 13 20
-12 49 -59 71 -41 20 -102 9 -147 -24 -16 -12 -52 -28 -81 -37 -29 -8 -79 -28
-111 -44 -32 -16 -60 -28 -62 -26 -2 1 3 21 11 42 15 43 20 105 8 105 -5 -1
-22 -7 -39 -14z"/>
<path d="M5880 11698 c-67 -34 -64 -52 12 -66 66 -12 126 -5 154 18 13 11 13
15 -1 30 -14 15 -84 40 -112 40 -5 0 -29 -10 -53 -22z"/>
<path d="M6825 11711 c-39 -10 -75 -29 -75 -41 0 -35 98 -52 189 -32 51 11 48
28 -8 56 -53 27 -58 28 -106 17z"/>
<path d="M6351 11647 c-8 -10 -6 -29 9 -73 11 -32 22 -71 25 -86 6 -29 23 -38
29 -15 2 6 13 45 25 85 18 58 20 76 11 88 -16 18 -84 18 -99 1z"/>
<path d="M6029 11552 l-34 -31 48 -21 c71 -32 107 -34 145 -11 39 25 39 31 7
61 -18 17 -40 25 -79 28 -48 4 -56 1 -87 -26z"/>
<path d="M6617 11555 c-20 -14 -37 -30 -37 -35 0 -17 58 -40 100 -40 41 0 120
33 120 50 0 5 -13 18 -29 29 -42 30 -106 28 -154 -4z"/>
<path d="M6221 11421 c-11 -7 -6 -20 23 -67 22 -37 40 -82 46 -119 35 -197 40
-205 110 -205 69 0 90 33 106 165 9 76 26 126 60 170 34 45 27 70 -17 61 -18
-3 -37 -6 -44 -6 -8 0 -34 -15 -58 -34 l-45 -34 -39 28 c-21 15 -56 33 -78 39
-48 13 -46 13 -64 2z"/>
<path d="M4739 11385 c-58 -38 -135 -55 -274 -61 -71 -3 -145 -10 -163 -16
-61 -18 -30 -33 84 -39 112 -7 169 -21 245 -60 70 -35 107 -68 119 -105 17
-51 49 -42 63 17 5 17 -2 42 -18 76 l-25 50 20 44 c22 50 25 90 8 107 -15 15
-16 15 -59 -13z"/>
<path d="M7997 11403 c-14 -13 -6 -75 14 -114 l20 -40 -25 -51 c-25 -51 -26
-86 -3 -115 16 -21 26 -15 44 24 41 86 220 165 380 168 51 1 96 5 100 8 20 20
-30 32 -184 43 -169 11 -222 23 -288 64 -34 21 -47 24 -58 13z"/>
<path d="M4814 11228 c-5 -7 6 -23 31 -42 21 -17 61 -52 90 -78 52 -48 91 -61
101 -34 10 26 -14 52 -93 103 -89 58 -118 69 -129 51z"/>
<path d="M7901 11210 c-84 -46 -143 -99 -139 -124 6 -40 45 -32 101 21 29 26
70 62 91 79 24 18 36 35 32 42 -11 18 -26 15 -85 -18z"/>
<path d="M6160 11122 c0 -4 -7 -38 -15 -76 -26 -123 -106 -221 -300 -366 -47
-36 -112 -95 -144 -132 -89 -104 -171 -277 -171 -360 0 -33 8 -34 58 -9 34 17
77 25 124 22 10 -1 19 -13 23 -33 4 -18 9 -36 12 -41 2 -4 30 19 62 51 38 39
86 73 146 104 50 26 102 59 117 75 20 22 71 114 116 215 2 4 -15 12 -37 18
-23 6 -41 15 -41 21 0 5 11 31 24 57 61 121 89 328 60 434 -5 16 -34 34 -34
20z"/>
<path d="M6619 11113 c-10 -12 -14 -50 -14 -142 1 -131 20 -223 66 -313 25
-49 24 -56 -8 -64 -40 -10 -56 -24 -43 -39 6 -7 24 -41 41 -76 47 -98 91 -145
172 -186 91 -45 132 -75 184 -132 l41 -46 7 30 c15 69 34 76 121 45 99 -35 94
-35 94 -8 0 14 -11 57 -24 96 -63 185 -163 309 -373 461 -133 96 -232 247
-233 353 0 34 -14 43 -31 21z"/>
<path d="M5059 11046 c-38 -26 -46 -39 -59 -93 -9 -39 5 -111 27 -135 37 -41
92 -7 112 69 l11 41 59 -5 c52 -5 60 -3 74 17 34 49 -34 113 -133 125 -48 5
-59 3 -91 -19z"/>
<path d="M7585 11051 c-66 -30 -94 -74 -69 -110 17 -23 80 -29 114 -11 16 9
19 5 25 -30 9 -51 48 -100 81 -100 56 0 85 124 46 200 -32 65 -118 87 -197 51z"/>
<path d="M6309 10937 c-29 -64 20 -137 91 -137 70 0 125 75 99 134 -15 32 -20
32 -47 1 -29 -33 -68 -32 -104 1 l-27 27 -12 -26z"/>
<path d="M5202 10854 c-32 -22 -31 -88 2 -109 22 -14 28 -15 60 -1 31 13 36
19 36 49 0 22 -8 41 -23 55 -28 26 -45 27 -75 6z"/>
<path d="M7522 10853 c-30 -26 -37 -75 -15 -95 50 -43 113 -23 113 38 0 62
-55 94 -98 57z"/>
<path d="M6323 10670 c-63 -38 -81 -120 -40 -180 73 -108 198 -99 249 19 25
59 13 105 -37 150 -30 26 -44 31 -88 31 -34 0 -63 -7 -84 -20z"/>
<path d="M5264 10663 c-22 -73 -51 -95 -89 -65 -60 48 -132 8 -105 -58 17 -41
34 -53 80 -53 70 0 140 75 140 151 0 35 -17 52 -26 25z"/>
<path d="M7517 10674 c-10 -10 -9 -58 2 -86 14 -37 72 -87 108 -94 19 -4 46
-1 63 6 52 22 58 100 8 119 -28 10 -46 5 -76 -23 -29 -26 -49 -15 -77 43 -11
23 -24 39 -28 35z"/>
<path d="M4171 10431 c-107 -40 -194 -131 -217 -229 -16 -68 -18 -106 -4 -97
6 3 10 16 10 29 0 63 122 184 212 211 55 16 74 11 105 -27 27 -34 63 -54 108
-61 22 -3 50 -9 63 -13 18 -5 22 -2 22 15 0 31 -27 92 -53 119 -58 62 -160 84
-246 53z"/>
<path d="M8443 10420 c-63 -36 -91 -74 -100 -136 -6 -44 -5 -47 13 -39 10 4
39 11 64 14 56 9 76 20 119 65 40 42 52 43 117 16 81 -35 175 -134 189 -201 4
-16 11 -29 16 -29 6 0 8 8 5 18 -3 9 -8 40 -12 67 -17 126 -176 255 -312 255
-34 0 -62 -9 -99 -30z"/>
<path d="M5026 10329 c-40 -31 -34 -53 21 -74 56 -22 190 -149 222 -212 34
-69 69 -182 86 -288 27 -163 76 -234 184 -271 29 -9 43 -25 72 -75 47 -84 127
-139 200 -139 26 0 54 3 63 6 20 8 21 40 1 48 -23 8 -45 68 -45 121 0 54 27
111 79 168 78 85 91 112 91 193 l0 74 -39 0 c-45 0 -51 9 -51 84 0 32 8 67 20
91 11 22 20 43 20 47 0 4 -18 8 -40 8 -46 0 -114 -31 -132 -60 -7 -11 -16 -20
-20 -20 -3 0 -21 23 -39 50 -18 28 -35 50 -39 50 -13 0 -86 -57 -112 -88 -14
-17 -34 -52 -43 -77 -10 -25 -21 -45 -26 -45 -8 0 -29 87 -29 121 0 30 -44
110 -79 143 l-31 30 -25 -24 c-14 -13 -25 -18 -25 -12 0 19 -112 133 -151 153
-50 25 -100 24 -133 -2z"/>
<path d="M7643 10329 c-40 -19 -98 -75 -135 -128 -17 -24 -18 -24 -38 -6 -22
20 -29 16 -82 -40 -30 -32 -41 -64 -61 -164 -11 -59 -37 -97 -37 -54 0 23 -35
90 -64 122 -11 13 -40 36 -64 53 -39 27 -43 28 -49 11 -4 -10 -19 -37 -34 -61
-26 -41 -28 -42 -38 -23 -16 29 -90 70 -131 72 -54 4 -64 -7 -37 -42 18 -26
22 -44 22 -107 l0 -77 -40 0 -40 0 -3 -60 c-5 -85 11 -126 72 -192 60 -65 81
-102 91 -156 11 -54 -2 -103 -37 -142 -40 -46 -27 -65 44 -65 88 0 173 58 216
148 24 48 33 57 76 73 104 39 152 117 180 289 20 120 54 223 98 292 45 69 134
149 203 183 30 15 55 32 55 37 0 5 -12 20 -26 33 -34 31 -84 33 -141 4z"/>
<path d="M6142 10318 c-31 -31 -2 -108 41 -108 23 0 57 36 57 60 0 43 -69 77
-98 48z"/>
<path d="M6592 10314 c-51 -35 -8 -117 50 -95 27 10 38 29 38 65 0 45 -45 60
-88 30z"/>
<path d="M6380 10287 c-29 -14 -35 -41 -21 -80 8 -20 17 -27 38 -27 39 0 52
11 59 47 5 24 1 36 -15 52 -24 24 -28 25 -61 8z"/>
<path d="M3886 10051 c-33 -37 5 -93 49 -73 44 20 26 92 -23 92 -5 0 -17 -9
-26 -19z"/>
<path d="M6121 10043 c-31 -39 -11 -93 35 -93 48 0 69 53 38 98 -20 29 -48 28
-73 -5z"/>
<path d="M6616 10048 c-29 -41 -13 -98 27 -98 28 0 41 9 56 37 15 30 14 40 -9
63 -26 26 -55 25 -74 -2z"/>
<path d="M8856 10048 c-21 -29 -20 -41 4 -63 18 -17 21 -17 45 -1 40 26 29 86
-16 86 -10 0 -25 -10 -33 -22z"/>
<path d="M6352 9992 c-23 -22 -42 -44 -42 -50 0 -7 -17 -12 -44 -12 -41 0 -44
-2 -50 -31 -10 -50 -7 -163 5 -197 6 -17 9 -45 7 -63 l-3 -32 -25 39 c-27 41
-67 68 -117 79 -30 6 -31 5 -41 -37 -6 -24 -17 -61 -26 -83 -8 -22 -15 -53
-16 -70 0 -25 -6 -33 -41 -47 -40 -17 -41 -18 -27 -40 8 -13 29 -48 47 -80 55
-97 110 -138 188 -138 69 0 108 18 155 70 62 68 90 68 162 1 61 -58 116 -78
190 -67 63 10 109 52 164 151 47 84 46 98 -8 110 -26 6 -28 9 -23 39 3 21 -2
49 -14 77 -11 25 -23 62 -27 83 -7 36 -8 37 -39 31 -50 -11 -90 -37 -116 -78
-33 -50 -46 -28 -26 39 16 53 20 211 6 233 -6 10 -21 12 -48 9 -35 -5 -40 -3
-51 22 -11 23 -77 80 -93 80 -3 0 -24 -17 -47 -38z"/>
<path d="M3894 9872 c-6 -4 -16 -17 -23 -30 -10 -19 -10 -28 3 -48 22 -33 65
-43 83 -19 37 51 -14 130 -63 97z"/>
<path d="M8844 9855 c-20 -30 -12 -70 16 -85 25 -13 53 0 76 36 16 24 16 26
-6 49 -30 32 -65 32 -86 0z"/>
<path d="M5043 9828 c-26 -13 -29 -35 -9 -82 18 -43 61 -62 159 -70 43 -3 87
-11 99 -17 72 -38 2 98 -75 145 -53 33 -135 44 -174 24z"/>
<path d="M7615 9823 c-46 -24 -101 -81 -120 -124 -21 -45 -16 -56 15 -39 12 6
62 16 111 21 49 5 100 16 113 25 21 13 56 78 56 103 0 30 -125 41 -175 14z"/>
<path d="M8457 9748 c-30 -104 -30 -118 -3 -192 29 -76 32 -113 14 -163 -16
-44 -4 -52 31 -19 41 39 79 121 91 197 14 90 -5 153 -60 203 -22 20 -44 36
-48 36 -4 0 -16 -28 -25 -62z"/>
<path d="M4273 9768 c-40 -42 -49 -63 -58 -119 -13 -89 34 -227 99 -288 32
-30 39 -15 18 42 -17 46 -16 48 11 124 31 90 33 130 10 213 -19 70 -34 76 -80
28z"/>
<path d="M3947 9703 c-30 -29 56 -166 193 -307 105 -109 99 -118 -30 -36 -91
57 -199 106 -271 121 -111 24 -228 -9 -294 -83 -40 -43 -75 -108 -75 -138 0
-19 2 -19 42 7 32 22 58 29 117 35 42 3 86 9 98 13 17 6 25 1 37 -24 20 -38
36 -39 78 -2 54 47 102 56 189 37 41 -9 88 -23 104 -32 17 -9 51 -24 77 -35
42 -16 48 -17 56 -3 7 13 20 8 83 -29 41 -24 100 -53 132 -65 57 -22 147 -30
147 -13 0 4 -40 25 -89 45 -109 45 -184 90 -273 163 -89 73 -201 200 -234 266
-39 77 -66 102 -87 80z"/>
<path d="M8767 9618 c-61 -102 -168 -215 -292 -305 -82 -59 -113 -76 -218
-117 -43 -17 -77 -35 -75 -41 6 -18 92 -8 158 19 36 15 91 42 122 62 47 29 60
33 75 23 15 -9 35 -5 103 24 171 70 242 73 312 13 23 -20 48 -36 55 -36 8 0
22 14 31 31 15 26 21 29 46 24 17 -3 55 -8 85 -11 85 -8 97 -12 130 -40 l31
-26 0 25 c0 28 -42 111 -73 145 -11 12 -48 36 -81 52 -50 25 -71 30 -133 30
-114 0 -204 -34 -373 -142 -95 -60 -123 -58 -51 4 21 18 69 69 107 113 125
146 168 236 117 243 -17 3 -31 -13 -76 -90z"/>
<path d="M5171 9509 c-18 -5 -55 -33 -83 -60 -60 -60 -58 -63 48 -110 74 -34
75 -34 72 -69 -3 -31 1 -37 32 -52 55 -28 120 -23 192 13 58 29 67 31 135 25
l72 -7 -24 42 c-42 75 -149 175 -213 200 -65 24 -180 34 -231 18z"/>
<path d="M7422 9500 c-71 -24 -168 -106 -222 -190 -37 -57 -34 -73 13 -59 54
15 100 10 162 -21 73 -37 143 -40 193 -10 29 18 32 24 27 53 l-6 32 82 36 c46
19 84 40 86 45 6 20 -38 74 -82 100 -64 37 -164 43 -253 14z"/>
<path d="M2994 9362 c-23 -11 -44 -28 -48 -37 -6 -16 -2 -17 37 -12 101 14
150 -24 167 -127 6 -38 17 -81 25 -97 19 -36 19 -60 0 -85 -21 -27 -19 -34 11
-34 55 0 114 91 114 177 0 47 -36 136 -68 165 -65 61 -167 83 -238 50z"/>
<path d="M4675 9356 c-33 -33 -37 -117 -9 -184 l13 -33 -59 -59 c-53 -53 -60
-64 -60 -100 0 -74 58 -100 90 -40 19 36 80 73 132 81 79 13 205 -14 316 -66
52 -25 98 -42 103 -39 33 20 -17 56 -230 164 -163 84 -211 134 -220 234 -5 53
-9 61 -28 64 -14 2 -32 -6 -48 -22z"/>
<path d="M8055 9333 c-10 -78 -13 -86 -46 -126 -33 -41 -105 -90 -197 -136
-139 -69 -169 -84 -194 -103 -33 -23 -37 -48 -8 -48 11 0 51 15 88 34 100 50
174 69 273 70 78 1 89 -2 125 -26 21 -15 48 -41 59 -58 35 -52 85 -29 85 39 0
50 -29 89 -109 148 -2 1 4 33 14 71 27 104 1 182 -60 182 -21 0 -25 -6 -30
-47z"/>
<path d="M9620 9353 c-73 -37 -110 -96 -117 -186 -9 -103 32 -173 110 -192 21
-6 27 -4 27 9 0 9 -4 16 -10 16 -5 0 -14 9 -20 20 -8 15 -5 33 15 79 14 33 25
77 25 97 0 79 69 132 155 121 36 -5 45 -4 45 8 0 25 -48 47 -113 52 -54 4 -69
1 -117 -24z"/>
<path d="M9909 9254 c-16 -20 0 -49 27 -49 22 0 31 30 14 50 -16 19 -24 19
-41 -1z"/>
<path d="M2847 9254 c-4 -4 -7 -18 -7 -31 0 -20 5 -24 23 -21 16 2 22 10 22
28 0 24 -23 39 -38 24z"/>
<path d="M6339 9214 c-19 -23 -16 -80 6 -104 26 -29 98 -28 119 2 23 33 21 95
-3 108 -31 16 -107 12 -122 -6z"/>
<path d="M5735 9200 c-50 -7 -137 -36 -250 -83 -33 -14 -77 -28 -98 -32 -49
-9 -53 -18 -27 -62 11 -19 20 -37 18 -38 -2 -1 -19 -10 -38 -20 -49 -24 -77
-51 -117 -114 -21 -33 -31 -57 -25 -63 5 -5 30 -15 55 -21 l46 -12 -30 -45
c-64 -95 -113 -131 -184 -134 -34 -2 -30 -20 11 -49 51 -35 132 -57 214 -56
75 0 125 15 176 54 29 22 38 25 45 14 5 -8 9 -17 9 -21 0 -17 77 -92 107 -105
52 -21 63 -17 63 21 0 18 7 53 15 76 8 23 15 67 15 96 l0 54 39 0 c28 0 49 7
68 24 l27 24 -27 50 c-48 89 -30 170 53 246 46 42 96 66 135 66 58 0 8 70 -79
111 -64 30 -113 35 -221 19z"/>
<path d="M6878 9195 c-44 -16 -127 -72 -129 -85 -1 -6 -2 -15 -3 -21 -1 -7 23
-18 53 -26 68 -17 109 -48 151 -112 46 -73 49 -113 11 -184 l-31 -58 25 -25
c18 -17 35 -24 65 -24 l40 0 0 -43 c0 -24 7 -66 15 -93 8 -27 15 -64 15 -82 0
-38 15 -47 56 -32 31 12 114 87 114 105 0 5 4 16 9 24 8 12 16 10 47 -14 51
-39 98 -54 169 -54 76 -1 155 20 213 56 62 38 65 53 10 53 -25 0 -56 8 -75 19
-28 18 -133 144 -133 161 0 4 21 10 46 13 70 7 72 16 21 95 -37 58 -53 73 -96
93 -28 12 -51 24 -51 27 0 2 9 17 21 33 25 36 19 56 -18 64 -28 6 -66 19 -229
80 -110 41 -254 55 -316 30z"/>
<path d="M2788 9133 c-48 -55 -85 -196 -69 -264 22 -95 60 -169 87 -169 21 0
21 21 1 89 -25 84 -26 227 -3 291 24 69 18 91 -16 53z"/>
<path d="M9990 9094 c28 -79 27 -209 -1 -299 -18 -58 -19 -70 -7 -82 12 -11
17 -10 34 9 23 25 54 103 64 160 16 86 -44 257 -93 266 -15 3 -15 -2 3 -54z"/>
<path d="M4419 9045 c-80 -41 -192 -187 -176 -229 13 -34 37 -15 72 59 36 74
74 122 130 162 43 31 28 35 -26 8z"/>
<path d="M6540 9058 c-19 -5 -59 -30 -88 -55 l-53 -45 -44 41 c-53 49 -81 61
-138 61 -56 0 -98 -28 -140 -92 -39 -60 -72 -93 -104 -103 -13 -3 -23 -9 -23
-13 1 -17 53 -64 85 -78 19 -8 35 -17 35 -20 0 -2 -9 -22 -20 -44 -14 -27 -20
-59 -20 -102 0 -110 34 -140 103 -93 46 31 47 31 47 3 0 -41 46 -122 91 -164
25 -22 62 -62 83 -87 21 -26 44 -47 51 -47 7 0 28 19 46 43 18 23 61 72 95
109 40 42 64 78 69 100 14 72 11 70 65 40 75 -41 96 -19 99 104 1 37 -6 64
-23 97 l-25 46 32 11 c36 12 87 57 87 76 0 7 -16 21 -36 30 -25 12 -50 39 -81
86 -58 90 -116 119 -193 96z"/>
<path d="M8330 9060 c0 -5 4 -10 9 -10 5 0 31 -20 59 -45 35 -32 61 -68 88
-125 27 -55 44 -80 56 -80 41 0 11 89 -56 167 -57 65 -156 125 -156 93z"/>
<path d="M4164 8938 c-26 -12 -49 -52 -40 -67 8 -12 55 -15 81 -5 8 4 23 20
31 37 13 24 14 31 2 38 -17 11 -48 10 -74 -3z"/>
<path d="M8557 8944 c-12 -13 23 -61 52 -74 31 -13 81 -7 81 9 0 5 -12 23 -26
40 -20 25 -34 31 -63 31 -21 0 -40 -3 -44 -6z"/>
<path d="M8371 8904 c-27 -34 -26 -49 1 -68 30 -21 45 -20 58 5 15 27 5 66
-19 79 -16 8 -23 5 -40 -16z"/>
<path d="M4374 8895 c-24 -37 -5 -78 33 -73 38 4 54 49 28 78 -24 27 -41 25
-61 -5z"/>
<path d="M9334 8825 c-31 -32 -28 -64 8 -84 25 -14 29 -14 51 7 13 12 31 22
39 22 18 0 54 -40 63 -71 10 -29 25 -23 25 11 0 62 -77 140 -139 140 -12 0
-33 -11 -47 -25z"/>
<path d="M3340 8814 c-37 -31 -60 -73 -60 -109 0 -34 15 -32 30 6 7 17 24 38
37 46 22 15 25 14 47 -6 58 -54 133 12 76 69 -30 30 -90 27 -130 -6z"/>
<path d="M4245 8719 c-17 -32 -18 -130 -1 -146 4 -5 25 11 47 35 33 35 46 42
77 42 56 0 69 12 49 44 -22 33 -41 42 -104 51 -51 7 -52 6 -68 -26z"/>
<path d="M8440 8739 c-32 -13 -70 -49 -70 -65 0 -15 52 -28 79 -19 14 4 30 -5
60 -37 29 -32 43 -40 51 -32 17 17 16 94 0 129 -13 25 -22 30 -55 32 -22 1
-51 -2 -65 -8z"/>
<path d="M9881 8707 c-28 -28 -1 -56 79 -85 99 -36 100 -36 100 -8 0 20 -9 30
-42 47 -99 49 -125 58 -137 46z"/>
<path d="M2809 8671 c-126 -67 -84 -106 49 -46 63 28 80 48 61 71 -17 21 -28
18 -110 -25z"/>
<path d="M3577 8704 c-10 -10 -8 -81 4 -134 29 -130 188 -349 320 -442 75 -53
56 -62 -37 -18 -75 36 -140 97 -149 141 -12 54 -55 29 -55 -32 0 -21 5 -50 10
-65 6 -15 8 -29 6 -31 -12 -12 -238 57 -316 97 -150 75 -314 211 -397 327 -25
35 -46 63 -48 63 -2 0 -16 -5 -30 -12 -38 -17 -31 -47 28 -119 153 -185 368
-313 664 -394 l62 -17 -6 -44 c-10 -73 -3 -77 65 -43 36 19 83 34 121 38 62 7
145 1 158 -13 4 -3 -3 -24 -15 -45 -30 -53 -29 -71 6 -71 15 0 45 -7 67 -15
22 -8 59 -14 83 -15 l42 0 0 -39 c0 -22 4 -42 9 -45 4 -3 41 -2 82 3 62 7 89
17 167 60 171 95 375 133 565 106 172 -24 308 -66 378 -116 36 -25 33 -34 -7
-18 -130 49 -369 73 -500 49 -64 -11 -257 -82 -278 -101 -5 -5 1 -22 16 -41
l25 -32 -62 -61 c-85 -84 -119 -156 -123 -260 -4 -107 5 -119 56 -73 30 27 55
39 99 48 32 6 84 18 116 26 32 8 60 14 62 14 2 0 6 -18 10 -41 6 -37 9 -40 33
-35 15 3 50 8 77 12 78 11 127 37 191 103 32 34 61 61 65 61 4 0 9 -13 12 -30
10 -47 44 -49 130 -8 101 49 164 62 249 53 143 -14 283 -75 395 -173 74 -66
109 -114 118 -164 8 -44 -5 -50 -26 -12 -20 39 -137 142 -190 169 -25 13 -82
28 -130 35 -46 6 -103 18 -126 25 -53 17 -68 3 -60 -53 l7 -37 -51 -18 c-95
-34 -162 -136 -144 -218 8 -34 25 -37 51 -8 69 78 230 76 368 -5 105 -62 203
-210 213 -324 11 -120 -49 -261 -157 -372 -79 -81 -147 -116 -250 -129 -83
-11 -126 -5 -194 28 -79 39 -135 126 -120 188 7 28 18 29 36 5 20 -29 59 -49
106 -56 54 -8 118 21 167 76 82 91 43 226 -84 291 -150 76 -365 -24 -431 -201
-24 -63 -28 -184 -10 -253 28 -104 70 -159 170 -222 79 -50 141 -68 255 -74
86 -4 114 -1 198 21 54 14 137 44 185 68 72 35 104 60 182 138 82 82 103 110
152 205 67 131 88 197 102 330 l11 100 119 3 c66 1 123 -1 127 -5 4 -4 12 -57
19 -118 9 -93 18 -127 57 -219 99 -234 240 -382 448 -469 64 -27 205 -57 269
-57 137 0 235 32 342 111 166 122 180 419 27 566 -74 71 -129 95 -223 101 -89
5 -131 -11 -192 -75 -95 -98 -83 -212 28 -282 65 -42 133 -49 179 -21 20 12
43 33 52 47 35 53 46 -42 13 -108 -23 -45 -91 -93 -154 -110 -22 -6 -76 -9
-121 -7 -63 2 -92 9 -140 32 -85 41 -185 146 -228 239 -39 84 -63 197 -53 253
19 101 117 242 206 299 53 33 154 65 209 65 61 0 106 -15 153 -51 20 -16 42
-29 47 -29 7 0 11 24 11 58 0 91 -59 166 -153 194 -38 12 -39 12 -32 53 7 52
-11 73 -45 55 -12 -7 -65 -18 -117 -25 -59 -8 -114 -23 -147 -39 -52 -26 -167
-127 -199 -175 -22 -32 -31 -21 -22 26 5 28 25 56 83 116 137 141 289 209 468
211 96 1 103 0 176 -36 106 -53 140 -54 157 -8 5 17 12 30 15 30 3 0 32 -27
66 -60 69 -68 110 -89 190 -101 109 -16 103 -17 113 21 5 19 10 36 11 38 4 4
228 -48 245 -58 9 -4 25 -18 35 -29 28 -31 44 -26 52 15 19 104 -38 248 -133
333 l-56 50 27 31 c14 17 26 35 26 39 0 4 -15 13 -32 18 -18 6 -64 24 -103 41
-38 16 -111 37 -162 47 -79 15 -107 16 -202 6 -95 -9 -231 -36 -285 -57 -9 -3
-16 -1 -16 4 0 20 126 73 241 103 64 16 156 32 209 35 172 11 376 -37 524
-124 68 -39 89 -46 153 -52 41 -3 76 -4 79 -1 2 2 4 14 4 27 0 38 11 54 39 54
14 0 48 7 75 15 27 8 63 15 79 15 28 0 29 2 23 31 -3 17 -15 42 -26 56 -11 14
-20 29 -20 34 0 4 29 11 65 14 80 9 173 -7 234 -41 24 -13 48 -21 53 -18 6 4
8 27 5 54 l-6 48 130 41 c247 80 468 216 582 360 66 85 76 109 52 127 -30 22
-49 17 -70 -18 -29 -51 -162 -185 -245 -247 -105 -78 -218 -135 -342 -171
-144 -41 -139 -43 -131 30 5 50 3 64 -12 80 -26 28 -33 25 -45 -19 -16 -61
-82 -115 -199 -161 -62 -24 -67 -11 -8 23 51 30 159 135 220 215 52 68 99 156
121 231 16 56 22 151 9 151 -5 0 -21 -28 -37 -62 -50 -109 -236 -283 -391
-366 -109 -59 -239 -94 -491 -132 -106 -16 -204 -32 -218 -36 -26 -6 -27 -5
-19 22 15 54 9 121 -13 151 -16 21 -31 29 -62 31 l-42 3 0 -51 c0 -48 -3 -55
-51 -106 -62 -64 -199 -135 -377 -194 l-113 -38 7 74 7 73 -36 36 c-39 39 -78
45 -127 20 -35 -18 -38 -35 -10 -60 28 -25 35 -76 17 -112 -25 -47 -98 -128
-157 -174 -108 -84 -317 -298 -377 -387 -62 -90 -122 -200 -142 -263 l-12 -36
-109 -8 c-121 -7 -234 1 -248 19 -5 6 -15 29 -22 51 -51 162 -217 368 -470
587 -187 162 -238 242 -193 305 10 14 23 32 28 40 22 31 -66 63 -118 44 -54
-21 -83 -108 -58 -174 6 -14 8 -27 5 -30 -10 -10 -266 83 -362 133 -83 42
-112 63 -143 102 -21 28 -39 60 -40 71 -3 71 -4 72 -31 75 -79 9 -118 -82 -83
-194 l6 -21 -93 18 c-51 10 -155 27 -231 39 -243 37 -399 94 -536 197 -137
102 -259 241 -287 326 -5 16 -13 25 -17 21z"/>
<path d="M3268 8609 c-24 -13 -23 -54 2 -79 37 -37 93 -16 93 35 0 46 -52 70
-95 44z"/>
<path d="M9458 8609 c-21 -12 -24 -59 -6 -77 21 -21 64 -14 82 13 20 30 20 40
0 59 -18 18 -51 20 -76 5z"/>
<path d="M8390 8570 c-23 -23 -25 -38 -6 -62 19 -25 43 -22 62 7 19 29 14 49
-15 65 -17 8 -24 7 -41 -10z"/>
<path d="M4363 8573 c-16 -6 -17 -55 -1 -71 34 -34 77 6 56 52 -11 25 -28 31
-55 19z"/>
<path d="M5774 8545 c-4 -10 11 -42 40 -84 25 -37 46 -71 46 -74 0 -4 -11 -7
-25 -7 -34 0 -67 -35 -63 -67 3 -22 8 -25 48 -28 95 -5 164 -63 246 -205 32
-55 52 -80 66 -80 10 0 21 6 24 14 11 28 -151 294 -271 444 -73 91 -101 113
-111 87z"/>
<path d="M6959 8502 c-78 -83 -164 -205 -241 -345 -74 -132 -82 -160 -46 -155
17 2 38 29 80 98 83 139 148 190 246 190 31 0 33 2 30 33 -2 25 -10 36 -36 49
-19 9 -36 19 -39 22 -3 3 10 27 29 54 54 74 60 88 44 101 -10 8 -25 -2 -67
-47z"/>
<path d="M3418 8523 c-15 -16 -30 -41 -34 -56 -6 -27 -9 -28 -38 -21 -95 23
-134 -12 -82 -73 26 -31 82 -53 132 -53 74 0 131 75 119 157 -11 75 -51 94
-97 46z"/>
<path d="M9300 8529 c-15 -28 -16 -120 -1 -148 16 -30 69 -61 104 -61 47 0
126 40 143 72 23 44 4 71 -44 65 -21 -3 -46 -8 -58 -12 -18 -6 -22 -2 -27 24
-14 66 -93 107 -117 60z"/>
<path d="M6040 8410 c-25 -15 12 -89 90 -180 25 -29 29 -32 30 -15 0 23 -37
115 -65 162 -21 36 -36 45 -55 33z"/>
<path d="M6717 8388 c-42 -58 -83 -179 -59 -178 8 1 109 140 118 164 6 16 -11
46 -27 46 -4 0 -19 -15 -32 -32z"/>
<path d="M6216 8302 c-3 -5 4 -42 15 -82 12 -41 24 -94 28 -118 8 -57 32 -75
61 -47 20 20 20 20 0 103 -11 46 -24 91 -29 100 -12 22 -68 55 -75 44z"/>
<path d="M6553 8290 c-41 -24 -47 -38 -68 -139 -15 -77 -16 -85 -1 -100 23
-23 49 -3 59 45 4 21 17 73 29 116 11 42 19 81 17 87 -3 7 -16 4 -36 -9z"/>
<path d="M9233 8246 c-81 -82 -84 -106 -7 -70 43 20 106 90 102 112 -6 33 -34
21 -95 -42z"/>
<path d="M3467 8294 c-22 -22 78 -120 133 -131 42 -8 39 0 -32 76 -52 55 -83
72 -101 55z"/>
<path d="M6361 8025 c-17 -20 -40 -53 -51 -75 -22 -44 -36 -55 -46 -39 -12 20
-74 40 -107 34 -18 -4 -44 -16 -59 -28 l-27 -22 28 -43 c17 -25 36 -74 46
-120 20 -89 45 -136 89 -163 37 -23 71 -24 110 -4 35 19 83 19 116 0 36 -21
72 -18 111 8 44 30 75 85 89 164 7 35 25 83 42 109 27 44 28 47 12 65 -22 25
-79 42 -111 34 -15 -3 -39 -15 -54 -26 l-28 -20 -22 43 c-28 54 -79 118 -95
118 -6 0 -26 -16 -43 -35z"/>
<path d="M3941 7677 c-17 -17 -13 -67 9 -116 l20 -43 -21 -34 c-26 -42 -23
-112 5 -128 14 -8 20 -8 23 1 38 104 206 185 387 188 101 1 122 10 90 36 -11
9 -63 16 -168 20 -172 8 -204 15 -279 57 -41 23 -57 28 -66 19z"/>
<path d="M8770 7653 c-70 -36 -161 -52 -310 -54 -91 -1 -124 -9 -128 -32 -3
-15 7 -17 86 -17 166 0 352 -79 388 -166 15 -35 32 -42 52 -22 19 19 14 87 -9
125 l-21 34 21 49 c22 50 25 77 15 104 -8 21 -17 19 -94 -21z"/>
<path d="M6335 7503 c-27 -14 -51 -26 -53 -28 -1 -1 9 -33 24 -71 14 -38 32
-106 39 -152 16 -95 25 -111 60 -104 31 6 40 22 49 87 4 28 21 92 38 143 16
51 28 95 27 96 -12 11 -111 56 -121 56 -7 -1 -35 -13 -63 -27z"/>
<path d="M8874 7508 c-4 -6 9 -25 28 -42 20 -17 61 -53 93 -81 31 -27 61 -50
66 -49 23 3 27 5 33 20 8 21 -14 45 -89 99 -70 49 -121 70 -131 53z"/>
<path d="M3858 7492 c-20 -9 -64 -39 -98 -65 -62 -49 -71 -70 -38 -90 13 -9
26 -3 65 33 27 25 70 62 96 83 65 53 51 74 -25 39z"/>
<path d="M5112 7378 c2 -16 18 -31 54 -48 29 -14 77 -43 108 -64 42 -29 60
-36 68 -28 18 18 -14 56 -94 112 -52 36 -80 50 -105 50 -30 0 -34 -3 -31 -22z"/>
<path d="M7565 7366 c-72 -49 -126 -108 -115 -125 7 -12 20 -7 72 26 34 23 84
52 110 64 69 33 77 69 15 69 -20 0 -51 -13 -82 -34z"/>
<path d="M9157 7339 c-53 -9 -84 -42 -98 -105 -10 -46 -10 -60 5 -99 13 -32
25 -47 42 -51 35 -9 82 37 90 88 l7 38 52 -6 c61 -7 95 7 95 39 -1 62 -100
112 -193 96z"/>
<path d="M3512 7319 c-45 -22 -76 -67 -66 -93 8 -21 45 -30 100 -23 l44 5 6
-38 c3 -21 17 -49 30 -64 54 -58 114 -14 114 83 0 68 -14 98 -59 128 -44 30
-111 30 -169 2z"/>
<path d="M3468 7134 c-52 -28 -46 -92 11 -112 44 -15 75 4 79 50 2 27 -3 43
-17 57 -25 25 -36 25 -73 5z"/>
<path d="M9251 7124 c-26 -33 -27 -58 -1 -84 24 -24 57 -26 88 -4 29 20 29 64
-1 92 -31 29 -61 28 -86 -4z"/>
<path d="M5514 7047 c-3 -9 15 -41 46 -78 37 -47 57 -84 76 -143 33 -106 41
-216 20 -275 -10 -28 -13 -48 -7 -54 47 -47 80 194 46 328 -19 71 -67 164
-103 198 -35 32 -70 43 -78 24z"/>
<path d="M7225 7041 c-32 -20 -87 -104 -113 -173 -12 -32 -16 -80 -17 -183 0
-120 3 -145 18 -169 27 -41 46 -20 28 31 -42 115 15 331 120 455 45 53 24 77
-36 39z"/>
<path d="M3457 6954 c-12 -12 -8 -62 7 -99 l14 -34 -39 -6 c-22 -4 -52 -17
-67 -30 l-27 -23 60 5 c72 6 92 -7 75 -51 -21 -58 34 -105 85 -72 28 18 40 54
31 91 -5 18 -2 25 8 25 22 0 64 42 71 70 4 18 0 32 -15 48 -27 29 -51 28 -88
-3 -39 -33 -59 -24 -86 37 -12 27 -25 46 -29 42z"/>
<path d="M9316 6925 c-4 -19 -18 -43 -33 -55 l-26 -21 -27 26 c-34 33 -74 33
-96 0 -23 -35 -7 -75 38 -98 33 -16 36 -21 31 -50 -7 -43 27 -87 67 -87 39 0
65 45 49 87 -15 40 10 56 79 49 28 -4 52 -4 52 -1 0 15 -70 45 -104 45 -29 0
-36 3 -28 13 15 19 31 84 25 107 -8 30 -20 24 -27 -15z"/>
<path d="M9496 6729 c-37 -29 -37 -83 2 -103 34 -18 79 -10 93 16 14 27 2 75
-24 93 -28 20 -39 19 -71 -6z"/>
<path d="M3232 6723 c-32 -28 -38 -67 -13 -92 25 -25 58 -27 89 -5 29 20 29
64 -1 92 -28 27 -48 28 -75 5z"/>
<path d="M9647 6632 c-9 -10 -23 -35 -32 -56 -14 -32 -19 -37 -38 -31 -100 32
-163 -4 -130 -73 25 -53 96 -87 172 -83 33 1 97 69 110 116 24 93 -33 182 -82
127z"/>
<path d="M3084 6619 c-43 -47 -7 -179 59 -219 39 -24 75 -25 125 -4 75 31 111
89 82 134 -9 14 -80 19 -134 9 -14 -3 -21 3 -26 22 -21 74 -68 100 -106 58z"/>
<path d="M1558 6569 c-19 -11 -24 -85 -12 -161 6 -32 11 -38 31 -38 33 0 38
22 25 114 -13 88 -19 99 -44 85z"/>
<path d="M11201 6523 c-7 -32 -11 -78 -9 -103 3 -40 6 -45 28 -45 20 0 25 6
32 40 5 22 7 67 6 100 -3 52 -6 60 -24 63 -18 3 -23 -5 -33 -55z"/>
<path d="M11023 6485 c-77 -14 -215 -61 -286 -96 -84 -44 -244 -159 -330 -239
l-88 -82 -39 26 c-22 14 -43 26 -48 26 -4 0 -13 -39 -19 -86 -9 -62 -21 -101
-44 -142 -55 -99 -78 -114 -99 -63 -6 16 -21 38 -32 48 -20 18 -21 17 -37 -6
-9 -14 -31 -38 -49 -55 -18 -16 -42 -45 -53 -63 -20 -32 -21 -32 -49 -18 -46
24 -56 19 -86 -47 -25 -56 -29 -79 -35 -198 -14 -277 -110 -475 -337 -692 -73
-69 -143 -118 -171 -118 -6 0 25 34 69 76 108 103 209 255 244 367 25 81 58
274 49 289 -2 4 -23 5 -46 2 l-42 -6 -11 59 c-16 81 -57 165 -108 215 -77 77
-191 113 -157 50 17 -33 13 -69 -20 -176 -18 -56 -33 -107 -35 -113 -2 -10
-10 -10 -29 -3 -38 14 -65 12 -65 -5 0 -9 -11 -42 -25 -75 -31 -73 -32 -135
-5 -221 24 -76 21 -93 -15 -79 -46 17 -75 -38 -75 -146 0 -96 -50 -191 -152
-292 -103 -101 -212 -159 -363 -192 -37 -8 -61 -8 -92 1 -43 12 -58 29 -26 29
34 0 150 33 208 60 66 30 84 45 140 117 22 26 57 67 78 90 46 48 44 66 -8 84
-33 12 -35 15 -28 44 11 46 5 132 -11 163 -21 39 -77 90 -109 97 l-28 7 7 -66
c6 -61 4 -71 -25 -131 -80 -161 -290 -255 -483 -214 -75 16 -116 40 -173 98
-86 89 -130 172 -157 294 -52 242 164 498 346 412 41 -20 48 -45 12 -45 -34 0
-87 -40 -114 -85 -19 -33 -22 -50 -19 -102 5 -72 29 -118 78 -151 30 -21 43
-23 111 -20 63 4 85 10 118 32 82 54 127 168 117 293 -15 186 -191 333 -401
333 -61 0 -79 -5 -140 -36 -101 -52 -132 -79 -197 -166 -76 -103 -116 -218
-131 -381 -9 -108 -9 -125 11 -210 30 -126 58 -190 134 -305 71 -106 150 -186
240 -242 31 -19 56 -39 57 -43 0 -8 -89 -162 -118 -204 -6 -10 -33 -2 -111 33
-244 107 -539 96 -758 -27 -100 -57 -245 -199 -289 -284 -63 -121 -77 -179
-70 -289 8 -119 30 -168 116 -250 70 -67 125 -95 215 -111 56 -9 81 -9 128 2
193 44 300 193 253 353 -37 127 -145 173 -264 114 -82 -41 -126 -140 -91 -205
16 -31 7 -38 -31 -25 -24 8 -43 25 -64 59 -26 42 -30 58 -29 117 2 126 75 242
192 304 136 71 287 82 436 31 58 -20 79 -34 124 -82 123 -133 160 -306 100
-469 -26 -72 -87 -134 -147 -152 -49 -15 -52 -23 -16 -51 73 -58 203 -44 268
28 24 26 38 26 61 1 10 -11 28 -20 40 -20 18 0 24 7 29 38 3 21 20 70 37 108
41 89 48 173 24 280 -9 43 -24 93 -33 111 -22 45 -7 53 29 16 65 -65 107 -303
79 -445 -30 -156 -94 -261 -201 -334 -84 -57 -104 -91 -75 -123 10 -11 15 -24
12 -29 -3 -6 -37 -18 -76 -27 -88 -22 -136 -53 -201 -135 l-52 -64 32 -26 31
-27 -91 -96 c-70 -74 -99 -98 -125 -103 -50 -9 -52 -23 -9 -60 76 -63 242 -84
347 -44 29 11 58 20 64 20 6 0 16 -18 23 -40 6 -22 14 -40 16 -40 15 0 183
141 230 193 69 78 155 247 189 376 14 51 28 96 31 99 14 14 3 -139 -16 -211
-74 -298 -224 -507 -460 -643 -44 -26 -86 -56 -95 -68 -8 -11 -26 -39 -40 -61
l-26 -39 32 -29 c32 -29 32 -29 17 -65 -13 -32 -26 -68 -54 -154 -4 -13 3 -18
30 -23 20 -4 49 -4 66 0 17 4 31 3 31 0 0 -4 -13 -35 -30 -70 -35 -73 -103
-153 -154 -180 -47 -25 -43 -46 12 -65 39 -13 42 -17 36 -40 -72 -281 -81
-545 -25 -735 21 -71 64 -164 78 -169 13 -6 63 17 63 28 0 2 -11 28 -24 57
-56 121 -96 317 -96 464 0 91 52 350 74 373 3 3 24 -12 46 -32 64 -58 137 -47
87 14 -40 47 -50 93 -44 198 7 121 22 139 30 35 14 -203 144 -466 272 -551 59
-39 89 -44 59 -9 -71 80 -128 254 -143 435 -16 183 16 337 126 612 36 91 70
180 75 198 10 36 23 41 38 13 24 -45 113 -75 165 -55 19 8 48 61 40 74 -3 6
-12 10 -19 10 -28 0 -65 42 -82 93 -28 82 -19 264 22 457 24 112 21 107 52 78
48 -44 76 -58 117 -58 57 0 95 39 98 101 l2 44 -52 -3 c-47 -3 -56 -1 -81 25
-38 37 -70 124 -92 248 -65 363 -152 588 -292 753 -15 18 -28 41 -28 50 0 20
119 234 153 274 l22 26 90 -14 c71 -11 118 -12 220 -4 147 12 239 34 495 120
205 69 269 79 320 53 24 -12 39 -29 46 -53 15 -45 34 -48 74 -13 42 38 51 96
20 136 -23 29 -88 67 -115 67 -8 0 -15 4 -15 9 0 19 178 172 280 241 89 60
143 81 205 83 45 1 59 -3 81 -23 l26 -25 19 24 c52 64 -19 171 -115 171 -32 0
-33 11 -5 36 12 10 51 57 87 104 207 268 339 392 497 469 151 73 267 105 392
105 57 1 103 5 103 9 0 4 -30 22 -67 40 -63 29 -78 32 -193 35 -107 3 -141 0
-238 -22 -63 -14 -139 -37 -169 -51 -31 -14 -58 -24 -59 -22 -8 8 66 67 116
93 45 24 68 29 123 29 54 0 67 3 67 16 0 24 -40 56 -87 70 -24 7 -43 16 -43
20 0 19 204 196 277 240 141 85 312 146 448 158 65 6 70 8 80 34 8 24 6 31
-10 43 -22 16 -27 16 -122 -1z"/>
<path d="M1651 6476 c-8 -9 -11 -26 -7 -39 5 -21 13 -25 68 -30 88 -9 218 -43
310 -83 153 -66 261 -142 377 -266 l53 -57 -40 -10 c-54 -15 -92 -47 -92 -77
0 -22 3 -24 23 -17 35 13 114 5 155 -16 43 -22 145 -101 138 -108 -2 -2 -26 7
-53 20 -200 100 -507 115 -650 31 -24 -14 -43 -26 -43 -27 0 -1 44 -3 98 -3
117 0 246 -33 386 -98 158 -74 276 -180 463 -414 65 -81 128 -157 142 -169 17
-17 20 -24 10 -27 -8 -2 -32 -9 -55 -15 -74 -20 -115 -91 -87 -150 18 -37 25
-38 62 -10 83 62 255 -17 484 -223 76 -69 90 -88 64 -88 -29 0 -114 -52 -125
-76 -22 -46 -15 -83 23 -121 41 -41 66 -40 77 3 9 34 38 58 80 66 47 9 135
-11 317 -71 257 -86 379 -111 543 -112 73 0 156 4 183 10 47 10 51 9 71 -16
24 -29 106 -165 140 -232 26 -50 27 -45 -38 -118 -20 -23 -69 -106 -107 -185
-74 -151 -114 -288 -160 -543 -25 -141 -53 -217 -94 -251 -27 -23 -37 -26 -78
-21 -43 5 -48 4 -53 -18 -7 -29 8 -72 36 -102 16 -17 33 -23 63 -23 41 0 69
14 117 58 31 28 28 32 52 -68 24 -104 35 -178 42 -291 5 -87 3 -116 -11 -160
-19 -59 -59 -109 -87 -109 -28 0 -23 -45 8 -69 50 -40 129 -21 178 41 l25 32
10 -28 c6 -15 11 -32 11 -37 0 -6 21 -61 46 -122 60 -145 110 -293 132 -387
26 -115 22 -318 -7 -440 -26 -104 -80 -232 -113 -267 -30 -32 -15 -40 28 -17
51 27 136 122 180 200 43 77 103 256 110 328 3 28 8 62 10 76 11 51 28 -12 28
-105 1 -91 -11 -131 -51 -177 -18 -20 -9 -38 19 -38 27 0 85 36 99 62 6 11 15
16 19 12 4 -5 21 -58 37 -119 26 -101 28 -125 28 -285 -1 -160 -3 -184 -28
-275 -15 -55 -39 -124 -52 -154 -31 -66 -31 -74 0 -91 39 -21 58 3 101 129 56
165 64 410 19 617 -42 192 -42 176 7 199 23 11 43 25 44 30 2 6 -24 27 -57 49
-64 40 -120 112 -144 183 l-13 38 53 5 c29 3 56 8 60 11 7 7 -15 86 -46 164
-21 53 -22 51 28 81 17 11 17 13 -1 47 -33 64 -74 103 -158 152 -218 128 -369
344 -444 634 -25 96 -33 238 -14 226 6 -3 10 -17 10 -29 0 -46 51 -199 97
-293 64 -130 158 -232 311 -342 l32 -22 17 38 c10 21 18 39 18 40 1 1 29 -7
64 -17 76 -24 200 -26 260 -5 53 18 133 73 128 88 -2 6 -21 15 -42 19 -45 10
-53 17 -148 121 l-70 78 27 28 28 29 -45 58 c-67 88 -124 124 -217 138 -70 10
-79 20 -50 51 23 24 24 28 9 53 -8 15 -37 42 -64 60 -28 17 -68 50 -91 71 -80
75 -144 254 -144 403 0 80 30 228 56 280 14 26 64 72 71 64 2 -2 -8 -39 -23
-82 -21 -63 -27 -99 -28 -174 -1 -88 2 -101 33 -169 18 -41 36 -92 39 -113 4
-33 8 -38 30 -38 14 0 36 10 49 22 l23 22 28 -26 c72 -68 164 -85 242 -45 59
29 63 50 10 66 -87 26 -150 117 -170 245 -31 198 87 413 255 465 238 74 485
-9 588 -196 34 -63 45 -154 27 -218 -13 -47 -75 -115 -105 -115 -18 0 -18 0
-4 55 10 39 8 50 -14 98 -23 50 -31 58 -91 87 -56 28 -72 31 -111 26 -118 -18
-193 -177 -141 -301 24 -58 109 -139 179 -171 53 -25 73 -29 144 -28 68 1 92
6 145 31 88 41 170 119 209 199 31 62 31 66 27 176 -5 99 -9 122 -38 188 -38
88 -61 121 -149 213 -81 84 -213 168 -306 195 -144 41 -175 45 -304 39 -143
-7 -211 -23 -326 -73 -44 -19 -85 -38 -92 -40 -10 -5 -116 169 -125 204 -2 6
37 42 87 80 231 173 370 457 351 718 -12 167 -72 321 -171 438 -46 54 -71 73
-140 107 -102 51 -161 58 -255 34 -91 -23 -153 -60 -215 -126 -103 -112 -124
-281 -49 -412 42 -75 145 -124 237 -114 60 8 100 35 126 90 58 119 -6 267
-114 267 -32 0 -33 24 -2 44 100 65 245 0 322 -145 39 -73 40 -75 39 -179 0
-89 -4 -115 -27 -174 -48 -121 -165 -253 -253 -283 -67 -24 -181 -28 -254 -9
-90 23 -144 52 -205 111 -82 79 -113 156 -96 243 5 23 5 45 0 48 -17 10 -90
-38 -116 -78 -25 -37 -28 -50 -28 -129 l0 -87 -37 -17 c-45 -19 -49 -45 -13
-69 13 -9 47 -46 75 -83 27 -38 72 -83 98 -101 55 -37 162 -76 240 -87 59 -8
60 -20 1 -35 -58 -16 -216 26 -317 83 -99 56 -199 156 -247 248 -33 62 -38 84
-45 165 -8 105 -25 138 -66 128 -40 -10 -44 2 -23 74 26 93 25 164 -6 230 -14
30 -25 63 -25 74 0 21 -10 21 -77 2 -18 -5 -23 -2 -23 13 0 10 -14 63 -31 117
-24 79 -29 108 -24 147 8 57 2 60 -67 30 -84 -36 -180 -175 -196 -283 l-7 -53
-48 3 c-46 4 -48 3 -43 -20 3 -12 10 -63 16 -111 23 -182 100 -334 253 -493
49 -52 83 -94 75 -94 -29 0 -137 87 -225 181 -178 190 -259 388 -266 647 -3
102 -7 120 -33 172 -31 64 -40 68 -84 45 -27 -14 -29 -13 -45 11 -9 14 -36 45
-58 68 -23 22 -47 50 -53 61 -12 20 -12 20 -37 -4 -14 -13 -29 -36 -32 -52 -8
-37 -17 -36 -51 4 -48 56 -86 152 -92 228 -2 38 -7 69 -9 69 -10 0 -49 -24
-68 -41 -20 -18 -22 -17 -90 47 -156 145 -306 245 -452 300 -100 37 -153 51
-230 59 -57 5 -72 4 -82 -9z"/>
<path d="M11295 6476 c-28 -21 -13 -32 76 -57 99 -27 187 -78 242 -139 25 -27
48 -50 51 -50 14 0 4 38 -22 85 -37 68 -132 140 -204 154 -112 22 -123 22
-143 7z"/>
<path d="M1384 6470 c-66 -13 -106 -34 -162 -85 -51 -46 -92 -108 -92 -140 0
-25 16 -17 45 21 42 55 151 120 241 145 92 25 110 35 93 55 -12 15 -60 16
-125 4z"/>
<path d="M6194 6338 c-46 -76 -172 -209 -231 -244 -42 -24 -52 -38 -35 -48 15
-9 128 71 194 136 75 73 138 163 138 195 0 41 -28 24 -66 -39z"/>
<path d="M6540 6377 c0 -35 89 -155 156 -213 74 -64 165 -125 176 -118 17 11
6 24 -44 57 -79 51 -169 151 -242 270 -20 33 -46 36 -46 4z"/>
<path d="M9644 6356 c-17 -13 -17 -17 -1 -87 9 -41 19 -95 22 -121 7 -51 28
-65 39 -25 17 64 -3 231 -29 240 -7 3 -21 0 -31 -7z"/>
<path d="M3109 6338 c-16 -29 -24 -218 -10 -238 18 -26 31 2 47 96 24 136 23
158 -3 162 -14 2 -26 -4 -34 -20z"/>
<path d="M1978 6230 c-28 -17 -21 -53 17 -90 l34 -33 -29 -34 c-46 -52 -38
-123 12 -123 27 0 89 34 117 64 30 32 34 99 9 138 -40 61 -123 101 -160 78z"/>
<path d="M6262 6195 c-19 -72 -72 -121 -188 -176 -76 -35 -110 -58 -138 -90
-33 -39 -55 -84 -45 -94 3 -2 34 5 70 14 74 21 152 59 190 93 68 60 137 182
141 249 4 57 -15 60 -30 4z"/>
<path d="M6508 6223 c-16 -75 93 -255 192 -318 37 -23 200 -78 208 -70 11 11
-12 59 -46 97 -25 28 -66 54 -127 83 -129 60 -182 112 -200 198 -6 30 -22 36
-27 10z"/>
<path d="M10715 6210 c-55 -44 -69 -67 -69 -121 -1 -41 4 -53 33 -82 42 -44
107 -64 133 -40 27 25 22 68 -13 107 l-31 36 36 34 c40 37 46 70 17 86 -34 17
-67 11 -106 -20z"/>
<path d="M1072 6168 c-7 -7 -12 -20 -12 -30 0 -26 47 -24 55 2 11 35 -17 54
-43 28z"/>
<path d="M11680 6162 c0 -11 7 -25 15 -32 21 -18 47 -5 43 22 -4 31 -58 40
-58 10z"/>
<path d="M6386 6138 c-10 -16 -18 -73 -24 -183 -10 -160 -10 -161 -56 -267
-57 -131 -68 -186 -55 -269 12 -76 24 -105 82 -194 l46 -70 -132 -5 c-120 -5
-137 -8 -185 -33 -68 -35 -134 -96 -182 -167 -54 -78 -92 -111 -232 -204 -89
-58 -124 -87 -126 -103 -5 -37 25 -29 190 52 146 71 158 75 255 85 139 15 192
32 265 89 54 41 70 61 114 145 59 112 55 113 123 -20 34 -66 52 -89 97 -122
73 -55 150 -82 259 -93 118 -11 130 -15 281 -93 139 -71 178 -81 172 -44 -2
15 -44 49 -146 117 -124 84 -149 105 -193 166 -82 115 -142 170 -217 201 -61
25 -77 27 -185 25 l-118 -2 12 23 c7 13 30 49 51 81 52 77 68 126 68 211 0 70
-19 166 -38 189 -5 7 -21 43 -36 80 -23 58 -28 91 -36 227 -8 139 -19 200 -35
200 -3 0 -11 -10 -19 -22z"/>
<path d="M9541 6151 c-11 -7 -8 -19 14 -65 26 -53 27 -63 22 -139 -7 -102 -36
-196 -81 -267 -41 -63 -44 -80 -17 -80 21 0 42 27 120 152 61 98 106 148 176
194 80 54 72 77 -36 97 -56 11 -64 16 -86 50 -14 22 -39 45 -58 53 -40 16 -36
16 -54 5z"/>
<path d="M10905 6153 c-25 -7 -44 -32 -45 -59 0 -42 55 -61 89 -30 27 24 28
72 2 86 -11 5 -21 9 -23 9 -2 -1 -12 -4 -23 -6z"/>
<path d="M1842 6138 c-20 -20 -14 -65 10 -82 12 -9 28 -16 35 -16 18 0 53 37
53 55 0 40 -70 71 -98 43z"/>
<path d="M3188 6134 c-16 -8 -37 -32 -48 -53 -17 -35 -23 -39 -58 -39 -54 -1
-112 -26 -112 -49 0 -11 20 -30 50 -48 69 -41 109 -85 179 -195 71 -113 108
-160 127 -160 23 0 16 22 -30 103 -51 90 -71 171 -71 284 0 70 3 86 23 113 13
17 21 38 18 46 -7 18 -43 17 -78 -2z"/>
<path d="M2204 6095 c-10 -25 4 -45 30 -45 13 0 52 -9 85 -19 90 -28 95 11 6
49 -63 28 -114 34 -121 15z"/>
<path d="M10484 6089 c-28 -11 -59 -28 -69 -39 -16 -18 -16 -20 -2 -26 9 -3
38 1 64 10 25 9 58 16 73 16 30 0 50 16 50 42 0 24 -49 23 -116 -3z"/>
<path d="M1725 6036 c-79 -79 -40 -233 52 -200 22 7 29 17 31 42 3 29 -1 34
-31 47 -19 8 -37 21 -41 30 -6 17 16 69 34 80 15 9 12 25 -5 25 -9 0 -27 -11
-40 -24z"/>
<path d="M11039 6026 c29 -47 28 -82 -4 -90 -36 -9 -60 -49 -45 -75 27 -51
105 -27 124 38 17 58 -32 161 -76 161 -20 0 -20 0 1 -34z"/>
<path d="M1041 6021 c-15 -27 9 -111 44 -157 41 -53 122 -88 187 -81 127 15
218 105 203 198 -7 40 -35 56 -35 20 0 -27 -37 -51 -78 -51 -18 0 -60 -12 -93
-26 -43 -18 -70 -23 -91 -19 -41 9 -95 60 -103 95 -8 38 -21 46 -34 21z"/>
<path d="M11725 6010 c-4 -17 -22 -47 -41 -66 -41 -40 -78 -44 -151 -15 -26
10 -72 22 -101 26 -50 7 -55 10 -69 43 -14 34 -16 35 -29 17 -37 -50 -1 -136
78 -186 49 -31 59 -34 134 -34 73 0 84 3 117 28 66 50 92 93 92 155 0 61 -19
82 -30 32z"/>
<path d="M6286 5977 c-34 -67 -68 -104 -147 -158 -35 -24 -72 -52 -81 -64 -25
-30 -78 -154 -68 -160 10 -6 72 15 126 43 49 26 136 115 162 167 42 84 66 205
43 219 -5 3 -21 -18 -35 -47z"/>
<path d="M6477 6023 c-20 -19 5 -139 45 -217 27 -52 103 -132 155 -163 52 -30
131 -55 138 -44 8 14 -51 135 -82 164 -15 16 -57 49 -93 75 -71 52 -128 120
-137 163 -5 29 -13 35 -26 22z"/>
<path d="M1337 5588 c-54 -71 -67 -109 -67 -188 0 -59 6 -86 25 -129 38 -81
145 -179 258 -237 153 -78 186 -109 85 -79 -85 25 -266 55 -334 55 -66 0 -98
-17 -88 -45 5 -12 26 -15 98 -15 207 0 472 -96 641 -232 61 -49 85 -59 85 -34
0 22 -113 128 -177 165 -104 61 -104 61 -99 79 4 12 -18 35 -77 80 -138 106
-187 181 -166 257 6 21 8 48 4 62 -5 20 -11 24 -37 21 -35 -3 -32 -7 -83 110
-30 68 -35 90 -30 123 8 48 -5 51 -38 7z"/>
<path d="M11420 5563 c0 -43 -7 -69 -25 -101 -13 -24 -29 -61 -35 -83 -9 -33
-14 -39 -31 -34 -10 4 -28 4 -38 0 -17 -5 -19 -15 -18 -89 2 -81 2 -83 -37
-133 -21 -28 -77 -80 -123 -114 -62 -47 -83 -68 -81 -83 2 -16 -14 -30 -77
-65 -78 -43 -170 -124 -194 -169 -21 -39 11 -26 104 43 134 100 262 154 460
196 71 14 116 18 157 14 60 -7 98 5 98 30 0 46 -156 43 -349 -6 -64 -16 -120
-29 -125 -29 -22 0 24 35 88 67 99 50 212 129 251 178 83 101 107 221 64 322
-23 53 -65 113 -80 113 -5 0 -9 -26 -9 -57z"/>
<path d="M2288 5272 c-21 -9 -49 -32 -62 -51 l-25 -33 23 -36 c28 -44 60 -68
104 -77 39 -8 42 9 11 65 -20 35 -20 39 -5 84 25 74 21 79 -46 48z"/>
<path d="M10450 5271 c0 -11 7 -38 16 -60 14 -36 14 -40 -5 -72 -30 -48 -27
-59 15 -59 29 0 44 7 70 36 49 51 53 78 18 116 -28 29 -42 37 -91 52 -19 6
-23 4 -23 -13z"/>
<path d="M5743 5208 c-51 -76 -60 -101 -67 -198 -7 -91 -27 -152 -66 -202 -59
-73 14 -53 86 24 86 90 124 179 126 288 1 65 -16 150 -30 150 -4 0 -26 -28
-49 -62z"/>
<path d="M6996 5253 c-4 -10 -11 -48 -16 -85 -17 -142 50 -290 173 -379 65
-47 74 -36 28 33 -38 58 -51 99 -57 188 -3 41 -10 89 -15 105 -10 32 -90 154
-100 155 -4 0 -10 -8 -13 -17z"/>
<path d="M2002 5233 c-21 -40 -21 -69 -2 -101 26 -42 38 -40 57 6 14 34 14 39
-3 71 -23 41 -39 49 -52 24z"/>
<path d="M10742 5215 c-17 -38 -15 -70 8 -96 l20 -24 20 24 c34 39 21 121 -19
121 -10 0 -23 -11 -29 -25z"/>
<path d="M5517 5212 c-39 -43 -47 -87 -45 -240 3 -134 1 -150 -19 -187 -11
-22 -33 -51 -47 -64 -32 -30 -24 -46 13 -26 73 37 171 222 171 324 0 39 -41
211 -50 211 -4 0 -14 -8 -23 -18z"/>
<path d="M7238 5163 c-38 -154 -33 -205 34 -335 49 -95 138 -182 138 -135 0 8
-9 22 -21 33 -12 10 -31 37 -43 59 -19 37 -21 53 -18 189 2 144 1 152 -23 203
-15 29 -32 53 -39 53 -6 0 -19 -30 -28 -67z"/>
<path d="M2408 5194 c-11 -22 -10 -28 7 -40 28 -21 53 -17 71 11 21 32 5 55
-37 55 -22 0 -32 -7 -41 -26z"/>
<path d="M10307 5199 c-7 -27 27 -61 56 -57 26 4 37 55 15 69 -26 17 -65 10
-71 -12z"/>
<path d="M2101 5141 c-39 -42 -73 -134 -78 -217 -7 -88 12 -110 22 -26 8 68
30 119 79 187 20 27 36 58 36 67 0 27 -29 21 -59 -11z"/>
<path d="M10635 5160 c-3 -5 13 -37 35 -70 56 -82 79 -137 80 -185 0 -51 15
-77 23 -43 17 62 -10 177 -60 255 -30 47 -64 66 -78 43z"/>
<path d="M3810 5125 c-30 -36 107 -129 204 -137 63 -5 54 18 -21 56 -37 19
-88 49 -113 65 -52 36 -53 36 -70 16z"/>
<path d="M8920 5114 c-19 -14 -65 -41 -102 -60 -70 -35 -89 -64 -42 -64 40 0
168 58 199 90 52 54 10 80 -55 34z"/>
<path d="M4803 5069 c-47 -52 -133 -92 -246 -116 -73 -15 -97 -16 -164 -6 -86
13 -107 6 -78 -27 41 -45 181 -51 295 -12 110 38 250 138 250 177 0 30 -20 24
-57 -16z"/>
<path d="M7940 5103 c0 -48 149 -160 258 -193 79 -25 216 -29 258 -8 29 14 52
43 42 53 -4 4 -46 1 -95 -5 -81 -11 -95 -11 -173 10 -112 29 -184 64 -229 111
-33 36 -61 50 -61 32z"/>
<path d="M5363 5083 c-7 -12 -13 -39 -13 -60 0 -62 -41 -201 -87 -292 -41 -83
-44 -111 -8 -98 8 4 33 43 54 87 45 92 74 230 69 325 -3 54 -4 58 -15 38z"/>
<path d="M7423 5003 c3 -54 13 -125 22 -158 22 -84 86 -209 108 -213 27 -5 21
22 -23 111 -46 95 -80 217 -80 293 0 39 -4 53 -16 58 -15 6 -16 -4 -11 -91z"/>
<path d="M2128 5016 c-16 -37 -4 -56 37 -56 28 0 38 5 44 23 13 32 -4 57 -40
57 -22 0 -32 -6 -41 -24z"/>
<path d="M10585 5020 c-11 -33 12 -60 51 -60 42 0 53 20 30 55 -21 32 -71 35
-81 5z"/>
<path d="M1052 4974 c-17 -37 -6 -71 26 -77 38 -7 71 9 78 39 14 56 -81 91
-104 38z"/>
<path d="M11662 4984 c-43 -30 -16 -94 39 -94 32 0 49 17 49 51 0 52 -44 74
-88 43z"/>
<path d="M890 4876 c-6 -8 -10 -25 -8 -38 3 -20 9 -23 42 -23 31 0 40 4 47 22
15 42 -51 74 -81 39z"/>
<path d="M11828 4864 c-11 -23 -10 -29 11 -45 13 -11 29 -19 36 -19 18 0 45
28 45 45 0 46 -73 61 -92 19z"/>
<path d="M1550 4841 c-134 -21 -240 -117 -240 -219 0 -22 3 -24 28 -18 15 4
52 12 82 18 49 11 62 19 125 84 76 77 100 94 139 94 29 0 41 14 23 28 -17 13
-104 21 -157 13z"/>
<path d="M11084 4826 c-22 -17 -16 -20 49 -31 28 -4 49 -18 75 -47 93 -103
108 -115 174 -131 36 -9 72 -19 81 -23 14 -5 17 1 17 32 0 83 -69 160 -179
199 -56 20 -190 20 -217 1z"/>
<path d="M2152 4810 c-36 -22 -59 -67 -68 -134 l-6 -43 -57 -13 c-31 -7 -68
-18 -82 -26 -47 -24 -77 -90 -54 -120 12 -17 16 -16 65 4 77 32 122 29 216
-17 43 -21 101 -55 129 -75 27 -20 54 -36 58 -36 5 0 23 -11 40 -24 51 -38
118 -69 129 -58 17 17 -3 40 -82 91 -131 85 -230 216 -230 304 0 22 8 62 18
89 17 48 16 50 -2 64 -26 18 -35 18 -74 -6z"/>
<path d="M10578 4819 c-22 -12 -23 -35 -3 -82 8 -20 15 -52 15 -71 0 -88 -101
-223 -234 -310 -47 -31 -86 -60 -86 -65 0 -5 6 -14 13 -20 14 -11 90 30 251
137 140 93 225 111 311 67 57 -28 75 -21 75 29 0 52 -57 97 -148 117 -49 10
-51 11 -57 52 -12 75 -41 126 -79 142 -41 17 -36 17 -58 4z"/>
<path d="M787 4728 c-69 -65 -92 -131 -92 -254 1 -73 4 -87 31 -130 33 -54
100 -101 157 -111 24 -4 53 1 84 12 45 17 46 19 27 34 -11 9 -30 31 -43 49
-26 37 -60 57 -114 67 -23 5 -44 16 -51 29 -47 74 -14 248 62 329 20 21 22 27
10 27 -9 0 -41 -24 -71 -52z"/>
<path d="M11965 4735 c60 -79 84 -220 51 -299 -14 -34 -22 -39 -84 -51 -22 -5
-54 -27 -93 -66 l-60 -59 35 -15 c97 -41 208 6 260 109 26 49 30 70 30 130 0
102 -26 168 -94 239 -67 68 -94 75 -45 12z"/>
<path d="M5792 4684 c-55 -15 -107 -38 -116 -53 -3 -4 36 -11 87 -13 83 -5
101 -10 177 -48 l85 -42 90 7 c49 3 91 8 94 11 2 2 -9 18 -24 35 -97 100 -252
141 -393 103z"/>
<path d="M6804 4686 c-28 -7 -74 -26 -102 -41 -53 -29 -120 -90 -109 -101 3
-3 44 -8 90 -11 82 -6 85 -5 178 38 88 41 100 43 182 44 48 0 87 3 87 6 0 14
-38 38 -83 53 -67 22 -181 28 -243 12z"/>
<path d="M2750 4582 c0 -4 8 -18 17 -32 25 -36 21 -105 -11 -185 -16 -38 -32
-74 -36 -79 -5 -5 -23 8 -40 28 -18 20 -38 36 -46 36 -7 0 -28 -28 -46 -62
-27 -52 -33 -74 -33 -128 l0 -65 -36 3 c-44 4 -66 -17 -49 -48 6 -11 22 -90
35 -176 23 -143 28 -162 72 -246 39 -76 57 -98 97 -125 56 -38 104 -54 128
-41 15 7 16 11 2 43 -24 58 -18 124 19 195 42 83 71 104 155 110 62 5 66 6 73
34 5 19 3 42 -8 68 -8 21 -14 40 -12 42 2 2 20 14 40 27 20 13 62 48 95 77 67
60 67 72 -6 110 -31 15 -62 22 -101 22 l-56 0 5 69 c4 61 1 75 -24 127 -37 74
-113 157 -167 183 -45 22 -67 26 -67 13z"/>
<path d="M9983 4569 c-58 -29 -129 -108 -165 -185 -26 -56 -30 -73 -26 -129
l4 -65 -56 0 c-40 0 -70 -7 -100 -23 -72 -38 -73 -48 -5 -112 33 -30 79 -66
101 -80 l41 -25 -19 -40 c-15 -30 -18 -46 -11 -67 9 -25 15 -28 69 -33 32 -3
73 -13 91 -23 68 -36 119 -177 95 -260 -20 -65 -19 -72 6 -75 28 -4 95 27 144
68 72 60 130 222 153 425 4 33 13 75 21 94 19 46 4 65 -47 57 l-37 -6 1 73 c1
64 -3 78 -32 130 -18 31 -40 57 -48 57 -8 0 -30 -16 -48 -35 l-32 -35 -33 71
c-38 84 -45 160 -17 202 9 15 17 29 17 32 0 10 -26 4 -67 -16z"/>
<path d="M5555 4525 c-22 -8 -41 -15 -42 -15 -2 0 -3 -7 -3 -16 0 -13 6 -14
33 -7 86 22 158 1 266 -77 72 -53 139 -80 197 -80 18 0 36 5 40 11 8 14 -77
101 -136 139 -87 56 -263 78 -355 45z"/>
<path d="M7011 4529 c-69 -13 -125 -46 -198 -114 -56 -53 -65 -66 -53 -75 40
-27 142 3 229 66 109 79 179 99 276 79 40 -8 40 -8 22 13 -34 38 -165 53 -276
31z"/>
<path d="M5395 4397 c-32 -24 -8 -34 92 -40 105 -6 248 -42 305 -77 36 -22 58
-26 58 -10 0 35 -203 113 -335 129 -110 13 -98 14 -120 -2z"/>
<path d="M7274 4399 c-99 -11 -299 -86 -319 -119 -15 -24 8 -22 63 3 85 40
195 66 305 74 83 5 97 9 97 23 0 10 -10 20 -22 24 -26 7 -27 6 -124 -5z"/>
<path d="M2020 4158 c-19 -31 -26 -73 -21 -128 8 -82 105 -201 200 -244 64
-28 196 -52 236 -42 l27 7 -37 40 c-45 50 -55 76 -55 142 -1 67 -28 127 -75
162 l-37 29 -33 -18 -34 -19 -69 52 c-38 28 -72 51 -76 51 -3 0 -15 -15 -26
-32z"/>
<path d="M10679 4139 c-72 -50 -74 -50 -100 -35 -36 21 -42 20 -79 -10 -46
-39 -70 -94 -70 -161 0 -58 -10 -80 -76 -170 -16 -23 -16 -23 29 -23 62 0 177
25 231 50 102 49 191 177 187 272 -1 50 -21 110 -39 122 -5 3 -42 -17 -83 -45z"/>
<path d="M4550 4133 c-36 -13 -99 -31 -140 -39 -41 -8 -79 -19 -84 -24 -10
-10 -10 -89 0 -122 5 -15 94 -78 112 -78 4 0 27 25 50 55 24 30 75 80 113 111
72 58 82 79 51 107 -23 21 -23 21 -102 -10z"/>
<path d="M8146 4138 c-9 -12 -16 -28 -16 -34 0 -7 28 -35 63 -63 34 -28 84
-78 111 -111 28 -33 55 -60 61 -60 14 0 86 48 103 68 6 9 12 43 12 77 l0 61
-77 13 c-42 7 -111 26 -152 42 -42 16 -79 29 -83 29 -4 0 -14 -10 -22 -22z"/>
<path d="M3325 4088 c-24 -19 -26 -25 -20 -64 l6 -43 -88 2 c-71 2 -88 -1 -88
-13 0 -20 62 -36 213 -54 130 -16 353 -21 411 -10 25 5 31 11 29 28 -3 20 -10
21 -138 26 -115 5 -142 9 -180 29 -46 24 -99 76 -100 98 0 22 -18 23 -45 1z"/>
<path d="M9426 4081 c-24 -46 -93 -98 -144 -110 -26 -6 -94 -12 -150 -15 -105
-4 -129 -12 -119 -40 5 -14 31 -16 176 -16 249 0 476 33 476 70 0 12 -15 14
-88 12 l-89 -3 7 39 c5 30 2 43 -15 65 -27 34 -36 34 -54 -2z"/>
<path d="M4030 4064 c-51 -17 -92 -24 -130 -22 l-55 3 -3 -45 c-3 -57 24 -104
73 -124 l36 -16 -30 -44 c-31 -44 -60 -130 -49 -142 12 -11 83 -24 138 -24
l56 0 -4 -37 c-4 -48 29 -101 78 -125 l35 -17 18 39 c9 21 49 69 87 106 118
115 129 189 40 264 -46 39 -50 45 -50 87 0 39 -5 50 -34 78 -55 51 -97 55
-206 19z"/>
<path d="M8633 4083 c-50 -6 -103 -61 -103 -106 0 -37 -18 -87 -31 -87 -21 0
-69 -55 -75 -85 -10 -56 13 -104 91 -185 40 -41 80 -92 88 -112 18 -44 21 -45
65 -18 47 29 74 77 68 123 l-4 37 66 1 c37 1 81 4 97 8 43 9 44 43 1 126 -20
37 -36 69 -36 71 0 2 14 11 30 19 39 20 70 70 70 112 0 53 -6 58 -60 55 -30
-3 -76 4 -117 16 -85 25 -109 29 -150 25z"/>
<path d="M1671 4003 c-19 -16 -20 -22 -10 -56 26 -94 166 -168 267 -141 22 6
21 8 -20 53 -24 26 -58 68 -75 94 -46 67 -116 88 -162 50z"/>
<path d="M11019 4005 c-15 -8 -44 -38 -65 -67 -20 -29 -53 -70 -72 -90 -31
-32 -33 -38 -18 -44 10 -4 44 -4 77 -1 104 9 185 74 196 157 5 36 3 40 -21 50
-37 14 -66 12 -97 -5z"/>
<path d="M6 3903 c-15 -15 -2 -49 63 -175 70 -134 91 -203 91 -295 0 -38 3
-43 22 -43 14 0 41 20 73 55 49 52 54 55 102 55 39 0 54 5 71 23 37 39 29 57
-25 57 -65 0 -134 34 -213 105 -74 66 -101 100 -136 167 -25 49 -37 62 -48 51z"/>
<path d="M12734 3840 c-70 -135 -242 -266 -337 -258 -36 3 -42 0 -45 -18 -5
-36 41 -64 104 -64 49 0 55 -3 68 -29 20 -37 74 -83 95 -79 13 3 18 21 23 87
6 79 12 96 84 242 70 145 83 189 55 189 -6 0 -27 -32 -47 -70z"/>
<path d="M3403 3839 c-31 -12 -29 -37 5 -50 42 -16 220 10 207 31 -3 4 -36 11
-73 15 -37 3 -78 7 -92 9 -14 2 -35 0 -47 -5z"/>
<path d="M9238 3831 c-96 -14 -63 -36 67 -46 77 -6 93 -5 104 9 34 41 -36 56
-171 37z"/>
<path d="M5514 3816 c-127 -40 -254 -143 -312 -254 -34 -64 -44 -124 -24 -144
15 -15 29 -2 43 40 25 76 60 131 131 203 75 75 145 118 208 129 22 3 35 11 35
20 0 20 -31 22 -81 6z"/>
<path d="M7207 3823 c-13 -12 16 -33 45 -33 89 0 255 -153 315 -291 33 -75 49
-92 64 -68 15 24 10 52 -21 117 -45 95 -132 180 -241 236 -83 42 -144 57 -162
39z"/>
<path d="M3760 3781 c-9 -5 -54 -19 -100 -31 -47 -12 -89 -25 -94 -30 -5 -5 9
-17 31 -29 43 -21 47 -21 182 22 43 13 64 38 54 65 -6 14 -51 16 -73 3z"/>
<path d="M8971 3776 c-24 -28 4 -52 94 -81 90 -28 117 -28 156 4 l24 19 -60
16 c-33 9 -88 26 -123 36 -75 24 -76 24 -91 6z"/>
<path d="M1220 3761 c-21 -39 -12 -72 33 -116 47 -47 119 -75 195 -75 44 0 44
0 40 -31 -6 -37 9 -46 83 -55 43 -5 70 -1 132 20 103 35 116 34 84 -3 -40 -48
-71 -122 -75 -182 l-4 -55 63 -2 c34 -1 63 -3 65 -4 1 -2 -2 -24 -8 -50 -17
-72 18 -174 52 -153 5 3 10 12 10 19 0 21 63 78 108 97 24 11 45 19 47 19 1 0
8 -13 15 -30 16 -37 32 -37 97 0 58 34 91 82 117 170 32 112 115 186 199 178
23 -3 49 -6 57 -9 27 -7 23 43 -7 89 -21 32 -45 51 -90 74 -56 28 -70 30 -128
26 -62 -5 -67 -4 -108 28 -90 72 -175 77 -332 17 -180 -68 -314 -80 -446 -39
-43 13 -98 37 -123 55 -55 36 -62 37 -76 12z"/>
<path d="M11529 3764 c-37 -44 -195 -95 -299 -96 -86 -1 -218 28 -312 68 -45
19 -86 28 -144 32 -88 5 -124 -6 -177 -57 -25 -23 -36 -26 -105 -27 -66 0 -86
-5 -137 -31 -62 -32 -105 -86 -105 -131 0 -28 12 -33 46 -21 79 30 187 -50
223 -164 32 -104 57 -145 108 -177 61 -39 84 -46 94 -29 29 50 31 51 79 30 46
-20 102 -72 113 -104 8 -22 23 -15 42 22 17 33 21 91 10 144 -6 30 -4 38 6 37
8 -2 38 -2 67 -1 l53 1 -6 48 c-11 76 -35 141 -67 178 -17 19 -28 37 -25 41 4
3 40 -6 81 -21 73 -26 137 -31 201 -17 26 6 30 11 29 37 -1 30 -1 30 67 41
146 23 235 99 209 178 -12 38 -30 44 -51 19z"/>
<path d="M3247 3750 c-64 -25 -111 -62 -127 -99 -15 -36 -19 -37 -52 -11 -20
15 -104 44 -109 36 0 0 -2 -23 -2 -51 -2 -35 -12 -69 -35 -112 -66 -128 -31
-218 104 -263 l65 -22 -8 -32 c-16 -62 -10 -152 13 -182 39 -54 68 -67 157
-74 61 -5 94 -13 120 -29 l36 -22 12 23 c7 13 13 48 14 78 l1 55 54 5 c57 5
108 30 149 74 32 34 23 67 -26 92 -21 10 -40 20 -42 22 -3 1 11 19 30 40 55
59 59 66 79 150 11 44 27 95 36 115 22 46 14 65 -33 72 -21 3 -78 15 -126 27
-84 20 -136 20 -194 2 -21 -6 -23 -3 -23 38 0 40 -21 89 -38 88 -4 -1 -29 -9
-55 -20z"/>
<path d="M9473 3749 c-7 -7 -13 -36 -13 -65 l0 -52 -47 15 c-55 16 -85 14
-203 -16 -47 -11 -97 -23 -112 -26 -35 -7 -35 -15 3 -133 48 -149 51 -154 91
-198 l37 -41 -34 -16 c-19 -9 -42 -28 -52 -43 l-17 -27 39 -35 c53 -46 111
-72 163 -72 43 0 44 0 37 -31 -7 -30 11 -119 24 -119 3 0 28 11 55 25 38 19
65 25 116 25 58 0 72 4 108 29 50 37 67 83 58 160 -3 31 -8 65 -12 76 -4 18 2
23 50 38 93 30 146 91 146 167 0 17 -14 58 -31 92 -18 35 -33 84 -36 116 l-6
54 -36 -6 c-19 -3 -48 -15 -63 -26 -37 -27 -41 -26 -71 19 -44 66 -164 121
-194 90z"/>
<path d="M3811 3543 c-62 -60 -71 -73 -71 -104 0 -20 3 -39 6 -42 4 -4 48 32
98 80 97 92 113 125 64 131 -21 3 -40 -11 -97 -65z"/>
<path d="M8867 3603 c-17 -17 -1 -41 84 -125 96 -94 117 -101 105 -34 -5 27
-24 53 -74 101 -61 60 -96 77 -115 58z"/>
<path d="M1020 3570 c-35 -35 -24 -72 31 -101 46 -23 48 -40 14 -91 -14 -20
-25 -39 -25 -42 0 -12 42 9 66 33 32 32 45 64 46 112 1 53 -10 78 -42 94 -39
20 -66 19 -90 -5z"/>
<path d="M11675 3566 c-32 -32 -39 -64 -25 -117 14 -50 68 -109 100 -109 21 0
21 2 -10 36 -42 48 -38 82 10 98 45 14 61 53 36 90 -22 35 -77 36 -111 2z"/>
<path d="M715 3471 c-92 -43 -126 -121 -86 -199 37 -72 122 -118 170 -93 34
19 25 67 -22 119 l-21 23 32 25 c20 16 36 40 43 67 10 38 9 43 -11 59 -28 23
-54 22 -105 -1z"/>
<path d="M4007 3468 c-95 -159 -137 -234 -161 -288 -16 -36 -37 -83 -47 -105
-25 -53 -59 -172 -51 -179 17 -18 37 2 67 69 19 41 38 75 43 75 5 0 18 -12 31
-26 18 -21 27 -24 54 -19 47 10 52 20 27 53 -14 19 -24 50 -27 90 -7 73 7 116
74 235 24 43 43 86 41 95 -5 26 -35 26 -51 0z"/>
<path d="M8747 3483 c-15 -14 -5 -44 51 -144 55 -101 57 -106 57 -181 0 -63
-4 -81 -22 -107 l-23 -30 22 -15 c31 -22 52 -20 86 9 l30 25 35 -75 c55 -115
91 -95 48 26 -42 120 -100 241 -172 362 -79 131 -94 149 -112 130z"/>
<path d="M11981 3473 c-19 -16 -20 -23 -11 -52 5 -19 23 -49 40 -66 l31 -32
-24 -29 c-52 -62 -47 -114 10 -114 49 0 105 34 136 83 51 77 25 158 -63 203
-54 28 -91 30 -119 7z"/>
<path d="M330 3455 c0 -18 67 -63 146 -98 87 -38 113 -34 100 16 -4 18 -27 29
-114 60 -122 41 -132 43 -132 22z"/>
<path d="M12417 3464 c-3 -3 -47 -20 -99 -38 -83 -29 -93 -35 -93 -57 0 -19 6
-25 27 -27 44 -5 218 90 218 120 0 9 -44 11 -53 2z"/>
<path d="M2412 3345 c5 -41 3 -46 -18 -51 -13 -3 -38 -23 -54 -43 -17 -20 -45
-51 -63 -68 l-31 -33 30 -31 c34 -37 81 -59 126 -59 28 0 30 -2 18 -14 -8 -8
-40 -21 -70 -30 -63 -17 -190 -94 -190 -114 0 -8 9 -27 20 -43 19 -25 19 -31
7 -51 -8 -13 -17 -42 -21 -66 -6 -40 -4 -43 26 -62 18 -11 50 -20 70 -20 34 0
40 -4 58 -40 l20 -40 73 36 c39 20 96 59 125 85 48 44 80 62 70 41 -37 -84
-41 -102 -28 -147 7 -25 16 -47 19 -49 10 -6 133 24 176 44 40 18 41 18 70 -6
33 -26 55 -31 55 -11 0 7 15 35 34 63 70 104 80 186 32 262 -36 57 -59 73
-133 90 -54 14 -70 22 -82 44 -14 25 -14 34 2 97 21 80 14 121 -28 183 -42 62
-86 78 -211 78 l-107 0 5 -45z"/>
<path d="M3802 3334 c-60 -77 -79 -119 -63 -138 7 -8 19 -12 26 -10 17 7 50
62 74 123 10 25 22 54 26 64 16 38 -22 15 -63 -39z"/>
<path d="M8936 3382 c-3 -6 14 -54 39 -106 35 -74 50 -96 66 -96 50 0 26 72
-55 164 -26 31 -45 45 -50 38z"/>
<path d="M10171 3378 c-53 -15 -80 -37 -112 -92 -32 -57 -36 -100 -14 -161 30
-84 11 -118 -79 -141 -77 -20 -111 -47 -143 -111 -36 -76 -29 -128 34 -233 26
-44 53 -80 59 -80 6 0 23 9 37 20 l26 21 38 -21 c21 -11 51 -20 68 -20 16 -1
48 -7 70 -15 22 -8 44 -10 48 -6 5 5 11 36 14 69 5 50 2 67 -15 96 -32 54 -4
47 66 -16 31 -29 86 -66 120 -83 l64 -29 19 24 c10 14 19 31 19 38 0 7 14 12
35 12 20 0 53 9 74 20 38 19 39 21 34 62 -3 24 -12 55 -21 69 -14 25 -13 29 7
57 11 17 21 34 20 39 -1 17 -146 101 -200 117 -31 9 -63 23 -70 33 -13 15 -11
16 19 10 43 -9 105 16 137 55 l25 30 -56 61 c-30 34 -68 70 -83 80 -26 16 -28
21 -23 62 l5 45 -94 -1 c-52 0 -109 -5 -128 -11z"/>
<path d="M888 3364 c-80 -43 -18 -150 63 -109 23 12 29 22 29 48 0 38 -7 50
-37 66 -26 13 -22 14 -55 -5z"/>
<path d="M1531 3320 c-119 -126 -186 -279 -212 -490 -29 -239 -87 -374 -191
-446 -41 -29 -41 -44 -2 -44 77 0 260 137 356 268 l40 54 27 -26 c27 -26 51
-34 51 -17 0 5 15 31 34 58 76 111 80 124 83 285 1 124 5 155 22 194 12 26 21
49 21 51 0 3 -22 2 -48 -2 -47 -6 -48 -6 -65 30 -9 19 -20 60 -23 90 -5 38
-11 55 -21 55 -8 0 -40 -27 -72 -60z"/>
<path d="M11177 3373 c-4 -3 -7 -28 -7 -55 0 -30 -8 -65 -21 -89 -17 -34 -24
-40 -42 -35 -61 17 -67 18 -67 7 0 -7 8 -28 17 -49 13 -29 17 -70 19 -182 2
-163 7 -182 73 -270 23 -30 44 -65 47 -77 8 -31 20 -29 54 7 l29 31 41 -55
c22 -31 62 -76 88 -102 103 -100 259 -191 284 -166 8 8 -5 27 -48 69 -97 94
-137 198 -163 423 -25 202 -94 358 -216 487 -58 61 -74 71 -88 56z"/>
<path d="M11853 3370 c-31 -13 -42 -74 -18 -100 22 -24 77 -26 99 -4 25 24 20
69 -10 93 -29 23 -38 24 -71 11z"/>
<path d="M2867 3192 c-39 -24 -42 -45 -12 -96 37 -63 62 -68 113 -23 31 29 29
72 -7 108 -34 33 -54 36 -94 11z"/>
<path d="M9831 3171 c-30 -41 -27 -85 5 -110 40 -32 69 -27 99 16 46 68 23
123 -52 123 -24 0 -37 -7 -52 -29z"/>
<path d="M7689 3176 c-3 -3 -3 -241 0 -268 1 -5 9 -8 20 -8 30 0 45 51 38 128
-8 98 -36 170 -58 148z"/>
<path d="M5080 3145 c-5 -13 -12 -48 -15 -77 -3 -29 -8 -66 -10 -83 -7 -41 30
-102 50 -85 21 17 21 270 -1 270 -8 0 -19 -11 -24 -25z"/>
<path d="M2009 2946 c-7 -14 -9 -36 -5 -50 5 -22 12 -26 41 -26 45 0 79 31 69
63 -9 29 -22 37 -62 37 -25 0 -35 -6 -43 -24z"/>
<path d="M10700 2950 c-11 -11 -20 -27 -20 -35 0 -23 37 -55 64 -55 25 0 56
23 56 41 0 15 -21 53 -34 61 -19 13 -45 9 -66 -12z"/>
<path d="M3812 2866 c-51 -18 -98 -38 -104 -44 -16 -16 -38 -15 -38 2 0 20
-58 66 -83 66 -16 0 -29 -13 -46 -45 -34 -64 -75 -87 -157 -86 -80 0 -161 34
-195 80 -12 17 -28 31 -35 31 -23 0 -37 -59 -31 -136 5 -67 10 -83 49 -142 50
-77 114 -142 215 -217 39 -30 84 -70 99 -89 32 -40 53 -36 74 14 15 36 19 36
53 10 44 -35 94 -50 162 -50 63 0 65 1 65 25 0 15 -7 39 -15 55 l-16 30 64 0
c101 0 167 -29 212 -95 21 -30 30 -10 29 63 -1 128 -75 255 -177 306 -52 26
-56 30 -43 45 38 42 56 128 40 189 -8 27 -7 27 -122 -12z"/>
<path d="M8870 2881 c-22 -42 -1 -151 36 -193 15 -16 13 -19 -38 -41 -29 -13
-67 -39 -82 -58 -61 -71 -114 -224 -100 -288 12 -54 14 -54 44 -13 16 23 39
46 51 53 24 12 200 42 207 34 3 -2 -3 -22 -12 -45 -29 -72 -27 -73 69 -68 76
4 89 8 130 37 26 18 48 32 49 30 2 -2 11 -19 20 -36 19 -38 50 -44 66 -13 6
10 63 62 128 113 111 88 155 136 213 232 20 34 24 53 24 127 0 69 -4 91 -17
105 -17 16 -19 15 -53 -24 -45 -52 -106 -77 -196 -77 -79 -1 -109 16 -150 85
-35 60 -60 62 -109 9 l-39 -42 -36 21 c-20 11 -57 26 -83 32 -26 7 -59 18 -74
25 -35 18 -35 18 -48 -5z"/>
<path d="M1796 2801 c-24 -26 -17 -62 17 -81 24 -13 30 -13 55 0 51 29 32 100
-28 100 -15 0 -35 -9 -44 -19z"/>
<path d="M10915 2795 c-31 -30 -31 -40 0 -71 19 -19 31 -23 48 -18 29 9 57 34
57 51 0 19 -45 63 -65 63 -9 0 -27 -11 -40 -25z"/>
<path d="M1946 2629 c-33 -26 -31 -55 7 -82 l27 -21 28 21 c33 24 40 58 16 84
-22 25 -45 24 -78 -2z"/>
<path d="M10766 2611 c-14 -27 -14 -31 5 -55 22 -28 66 -35 87 -14 20 20 14
65 -10 82 -35 25 -65 20 -82 -13z"/>
<path d="M3047 2613 c-2 -5 -7 -20 -10 -34 -9 -36 -77 -95 -124 -108 -51 -14
-77 -14 -143 4 -89 24 -147 20 -208 -16 -63 -35 -69 -48 -46 -84 17 -27 17
-28 -7 -46 -45 -35 -105 -59 -147 -59 -48 0 -49 -3 -23 -46 22 -36 74 -71 120
-80 17 -4 31 -9 31 -13 0 -3 -13 -29 -29 -58 l-29 -52 35 -21 c50 -29 119 -43
185 -35 72 8 70 -4 -12 -70 -63 -51 -101 -112 -104 -168 -1 -26 3 -33 22 -35
12 -2 22 -6 22 -9 0 -4 -12 -36 -26 -72 -50 -122 -35 -223 38 -259 46 -22 54
-10 54 81 0 85 25 185 63 257 26 48 121 152 216 236 44 38 95 92 113 120 33
48 33 51 29 134 -4 83 -4 86 32 144 31 51 36 69 39 130 3 65 1 75 -27 119 -28
43 -53 59 -64 40z"/>
<path d="M9719 2607 c-9 -7 -26 -32 -39 -56 -19 -38 -22 -56 -18 -113 5 -57
11 -77 41 -122 35 -52 36 -55 30 -128 -7 -99 15 -150 98 -227 198 -182 227
-213 263 -284 42 -83 69 -198 64 -277 -2 -44 0 -55 13 -58 62 -12 116 71 105
162 -4 28 -18 78 -31 111 -25 59 -22 74 13 75 19 0 15 34 -11 93 -17 37 -43
69 -90 111 -37 32 -67 61 -67 65 0 3 44 6 98 6 81 0 104 4 139 23 l42 22 -24
46 c-14 26 -29 52 -35 58 -6 9 3 15 35 24 56 15 125 75 125 108 0 21 -4 23
-24 18 -34 -8 -97 12 -145 46 l-41 30 21 29 c12 16 18 34 14 40 -3 6 -30 25
-58 41 -60 35 -115 38 -215 15 -121 -29 -224 16 -257 111 -15 43 -23 49 -46
31z"/>
<path d="M1653 2563 c-30 -6 -70 -55 -82 -100 -9 -32 -7 -44 17 -91 19 -39 36
-59 59 -68 115 -49 213 36 196 167 -5 33 -13 45 -44 66 -38 25 -101 36 -146
26z"/>
<path d="M11040 2555 c-49 -23 -79 -53 -86 -90 -13 -69 36 -158 95 -175 16 -4
49 -4 76 2 40 9 50 16 75 56 33 52 37 95 16 147 -26 62 -109 90 -176 60z"/>
<path d="M2282 2538 c-26 -13 -39 -54 -25 -77 6 -9 22 -17 37 -19 53 -7 87 56
50 92 -18 18 -30 19 -62 4z"/>
<path d="M10452 2528 c-16 -16 -15 -59 2 -80 25 -34 96 -15 96 25 0 49 -67 86
-98 55z"/>
<path d="M220 2434 c-27 -70 4 -142 76 -178 23 -12 61 -39 85 -61 24 -22 68
-56 98 -75 l53 -35 -33 -8 c-64 -16 -102 -32 -106 -44 -3 -7 10 -22 29 -33 26
-17 44 -20 80 -16 60 6 115 33 99 49 -24 24 -8 24 73 2 94 -26 187 -35 193
-20 2 6 -24 17 -57 23 -77 16 -202 58 -261 87 -101 52 -179 131 -179 185 0 36
-28 78 -76 115 -26 19 -51 35 -56 35 -5 0 -13 -12 -18 -26z"/>
<path d="M12504 2422 c-55 -45 -70 -68 -78 -127 -12 -96 -214 -216 -430 -257
-36 -7 -65 -17 -63 -23 6 -15 114 -7 188 15 80 24 81 24 77 3 -4 -25 56 -53
110 -53 46 0 108 33 96 51 -9 15 -74 39 -105 39 -40 0 -36 10 16 43 24 16 68
50 96 75 29 26 71 56 93 68 76 38 111 131 68 184 l-17 22 -51 -40z"/>
<path d="M2032 2424 c-29 -20 -31 -79 -3 -94 29 -15 49 -12 71 10 25 25 26 62
2 83 -23 21 -41 21 -70 1z"/>
<path d="M10692 2418 c-13 -13 -16 -57 -4 -75 15 -24 58 -33 82 -16 18 13 21
22 16 51 -3 19 -11 39 -18 44 -19 12 -62 10 -76 -4z"/>
<path d="M3193 2378 c-36 -70 -65 -176 -65 -236 -1 -78 15 -128 62 -201 43
-67 92 -97 167 -103 l38 -3 -3 96 -3 97 31 10 c25 9 30 16 30 42 0 68 -43 133
-118 177 -34 20 -49 39 -75 94 -17 38 -34 69 -37 69 -3 0 -15 -19 -27 -42z"/>
<path d="M9552 2364 c-13 -50 -40 -81 -115 -132 -50 -34 -86 -94 -87 -143 0
-27 21 -51 54 -63 11 -4 16 -12 12 -21 -3 -9 -9 -51 -12 -95 l-7 -80 34 0
c145 1 266 186 238 363 -15 90 -70 217 -94 217 -6 0 -16 -21 -23 -46z"/>
<path d="M455 2360 c-14 -44 6 -103 50 -147 51 -52 75 -56 75 -12 0 40 -22 87
-66 138 -40 46 -50 50 -59 21z"/>
<path d="M12281 2332 c-45 -55 -61 -89 -61 -133 0 -42 24 -37 76 15 41 41 44
47 44 99 0 31 -4 58 -9 61 -5 3 -27 -16 -50 -42z"/>
<path d="M1363 2350 c-18 -8 -43 -38 -43 -53 0 -3 13 -7 29 -10 47 -10 64 -34
57 -84 -5 -42 -5 -43 23 -43 59 0 102 92 71 151 -22 39 -88 59 -137 39z"/>
<path d="M11343 2345 c-64 -28 -74 -106 -19 -161 19 -19 44 -34 56 -34 20 0
21 3 14 45 -5 36 -3 50 11 65 10 11 25 20 34 20 9 0 22 4 29 9 20 12 -5 48
-42 61 -37 13 -44 12 -83 -5z"/>
<path d="M662 2278 c-17 -17 -15 -53 7 -97 21 -40 53 -66 95 -77 25 -6 26 -4
26 32 0 47 -26 92 -73 128 -39 30 -39 30 -55 14z"/>
<path d="M12061 2242 c-48 -45 -51 -51 -51 -96 l0 -48 32 6 c62 12 118 93 102
148 -5 17 -14 33 -20 35 -6 2 -34 -18 -63 -45z"/>
<path d="M5266 2253 c-15 -16 -1 -57 65 -189 69 -135 72 -145 78 -230 6 -87 7
-89 32 -92 22 -3 36 7 70 47 36 42 50 51 77 51 44 0 98 24 112 49 15 30 5 41
-39 41 -113 0 -270 120 -342 262 -29 58 -41 72 -53 61z"/>
<path d="M7484 2193 c-82 -148 -238 -269 -336 -261 -51 3 -64 -12 -39 -44 26
-32 72 -52 112 -46 27 4 34 0 54 -32 26 -41 65 -70 93 -70 17 0 20 10 25 87 5
85 7 93 82 240 42 84 75 160 73 169 -7 36 -27 22 -64 -43z"/>
<path d="M1863 2243 c-60 -4 -63 -5 -63 -29 0 -14 4 -34 10 -44 9 -17 5 -19
-48 -25 -142 -14 -323 -81 -397 -146 -32 -29 -46 -59 -27 -59 4 0 35 10 67 21
51 18 75 20 155 16 99 -6 143 -18 289 -81 139 -60 230 -81 356 -80 113 0 209
15 258 41 32 16 29 25 -24 58 -21 14 -51 43 -66 65 l-26 41 34 29 c28 25 32
31 19 40 -8 5 -27 10 -42 10 -44 0 -124 35 -209 91 -76 50 -83 52 -152 54 -40
1 -100 0 -134 -2z"/>
<path d="M10795 2239 c-61 -6 -106 -24 -160 -64 -47 -36 -164 -85 -201 -85
-44 0 -51 -15 -20 -44 14 -13 26 -30 26 -39 0 -21 -54 -82 -91 -104 -55 -33
-34 -54 81 -78 159 -33 348 -8 523 71 110 49 238 83 317 83 57 0 111 -13 183
-44 30 -13 20 31 -14 59 -17 15 -73 47 -124 72 -86 41 -155 61 -287 79 l-38 6
6 44 6 43 -74 4 c-40 1 -101 0 -133 -3z"/>
<path d="M1110 2203 c-75 -32 -95 -36 -162 -35 -69 0 -78 -2 -78 -17 0 -31 41
-73 96 -97 l52 -23 -5 -63 c-3 -48 0 -71 14 -98 10 -19 22 -35 28 -35 5 0 23
27 40 60 21 41 49 74 86 103 78 63 120 104 129 127 17 45 -35 115 -84 115 -17
-1 -69 -17 -116 -37z"/>
<path d="M11517 2210 c-18 -21 -27 -43 -27 -67 0 -39 16 -57 130 -146 38 -30
64 -60 83 -100 16 -31 35 -57 43 -57 25 0 46 67 42 131 l-3 58 55 28 c51 26
108 88 94 102 -3 3 -40 6 -82 6 -63 1 -91 7 -155 33 -43 18 -95 35 -116 38
-33 5 -40 2 -64 -26z"/>
<path d="M3696 2195 c-3 -8 -3 -107 1 -218 7 -263 -3 -303 -98 -363 -44 -28
-49 -46 -17 -68 49 -35 109 -15 177 59 l44 47 35 -16 c55 -27 126 -32 157 -12
59 39 54 96 -9 96 -52 0 -117 40 -154 94 -43 65 -81 191 -90 301 -5 71 -10 90
-23 93 -9 2 -19 -4 -23 -13z"/>
<path d="M9067 2204 c-4 -4 -7 -34 -7 -66 0 -72 -24 -192 -50 -254 -48 -110
-97 -152 -201 -169 -52 -8 -60 -40 -19 -77 37 -34 103 -37 167 -8 l42 19 33
-38 c50 -57 91 -81 136 -81 40 0 72 19 72 43 0 7 -20 25 -43 41 -24 15 -54 47
-67 70 -25 40 -25 44 -25 281 0 208 -2 240 -15 243 -9 1 -19 0 -23 -4z"/>
<path d="M248 2170 c-40 -12 -88 -43 -88 -57 0 -54 159 -57 230 -3 l25 19 -55
25 c-58 27 -69 29 -112 16z"/>
<path d="M12433 2150 c-24 -10 -43 -23 -43 -29 0 -5 19 -19 43 -30 58 -28 155
-29 188 -2 20 16 22 21 9 36 -39 47 -125 58 -197 25z"/>
<path d="M825 1963 c-33 -8 -66 -16 -72 -19 -30 -9 6 -104 39 -104 12 0 128
118 128 131 0 12 -21 10 -95 -8z"/>
<path d="M11880 1968 c0 -7 23 -35 50 -62 28 -27 50 -53 50 -58 0 -4 10 -8 23
-8 17 0 30 11 44 38 27 47 16 72 -30 72 -18 1 -50 7 -72 15 -49 18 -65 19 -65
3z"/>
<path d="M3007 1932 c-70 -77 -75 -224 -9 -294 33 -36 54 -35 86 3 35 42 33
82 -9 175 -19 42 -35 87 -35 100 0 31 -14 37 -33 16z"/>
<path d="M458 1923 c-55 -18 -61 -36 -18 -58 45 -23 168 -16 177 12 5 13 -51
49 -87 57 -14 3 -46 -2 -72 -11z"/>
<path d="M6300 1930 c-30 -7 -50 -52 -34 -78 6 -9 27 -25 47 -35 46 -23 47
-45 6 -92 -18 -20 -29 -39 -25 -42 11 -11 53 15 82 50 l27 34 30 -34 c28 -32
74 -59 84 -50 2 2 -10 19 -27 37 -18 19 -30 43 -30 60 0 22 7 30 40 43 71 28
62 97 -15 113 -24 4 -36 0 -57 -19 -22 -20 -29 -23 -38 -12 -16 20 -61 32 -90
25z"/>
<path d="M9767 1933 c-4 -3 -7 -15 -7 -26 0 -11 -16 -54 -35 -97 -19 -43 -35
-90 -35 -105 0 -32 33 -90 57 -99 45 -18 103 73 102 159 -1 53 -12 90 -44 143
-20 33 -27 37 -38 25z"/>
<path d="M12213 1908 c-18 -13 -31 -27 -30 -32 2 -6 23 -16 47 -24 36 -12 52
-13 90 -3 50 13 80 36 65 50 -16 14 -76 31 -109 31 -17 0 -46 -10 -63 -22z"/>
<path d="M901 1879 c-18 -30 -38 -88 -61 -177 -9 -35 -14 -41 -25 -32 -18 15
-43 2 -83 -45 -36 -40 -47 -73 -38 -110 9 -36 24 -31 78 25 l48 50 0 -34 c0
-18 7 -73 16 -122 9 -49 16 -110 15 -136 -4 -88 50 -158 123 -158 l29 0 -6 60
c-8 73 -26 111 -68 140 -36 26 -45 47 -59 135 -16 100 15 299 65 418 12 30
-14 19 -34 -14z"/>
<path d="M11860 1907 c0 -2 9 -29 19 -60 73 -213 70 -464 -7 -509 -39 -24 -65
-80 -66 -148 l-1 -55 30 3 c73 8 107 56 116 166 4 44 12 126 19 180 l13 99 30
-37 c16 -20 42 -43 57 -51 26 -13 28 -13 34 8 3 12 6 31 6 43 0 29 -53 100
-89 118 -26 14 -30 14 -35 -1 -9 -23 -13 -15 -32 58 -22 86 -66 189 -81 189
-7 0 -13 -2 -13 -3z"/>
<path d="M627 1824 c-48 -24 -129 -60 -180 -78 -119 -43 -169 -68 -234 -118
-46 -35 -93 -92 -93 -112 0 -13 69 -5 125 14 77 26 125 56 210 128 39 32 108
84 155 115 120 79 125 83 114 90 -5 3 -49 -14 -97 -39z"/>
<path d="M12075 1860 c-3 -5 31 -34 77 -63 46 -30 121 -85 168 -123 117 -96
141 -112 212 -140 60 -23 148 -33 148 -16 0 16 -71 91 -119 126 -27 20 -98 55
-157 77 -59 22 -156 65 -215 94 -60 30 -111 50 -114 45z"/>
<path d="M6737 1822 c-27 -30 -21 -68 19 -111 l35 -40 -30 -42 c-38 -52 -40
-82 -6 -97 38 -17 84 -3 125 38 44 44 65 98 56 145 -8 42 -70 100 -123 114
-51 15 -57 14 -76 -7z"/>
<path d="M247 1817 c-26 -11 -27 -13 -12 -34 32 -45 127 -49 180 -8 20 15 20
15 -4 35 -27 23 -118 27 -164 7z"/>
<path d="M5947 1807 c-95 -58 -104 -160 -20 -239 80 -76 177 -58 137 27 -8 19
-22 39 -30 46 -21 17 -17 36 9 54 41 27 61 97 35 123 -20 20 -89 14 -131 -11z"/>
<path d="M12392 1810 c-18 -11 -30 -24 -27 -29 3 -5 25 -17 50 -27 51 -19 107
-14 136 12 29 26 23 42 -18 53 -57 16 -104 13 -141 -9z"/>
<path d="M5590 1806 c0 -20 54 -60 122 -90 72 -32 107 -36 121 -14 16 24 -5
44 -60 57 -25 7 -72 23 -104 37 -68 28 -79 29 -79 10z"/>
<path d="M7125 1794 c-33 -14 -80 -31 -105 -37 -37 -10 -46 -16 -48 -38 -2
-17 3 -29 12 -32 39 -15 236 85 236 120 0 19 -28 15 -95 -13z"/>
<path d="M954 1773 c-3 -16 -7 -33 -9 -40 -7 -21 45 -110 71 -121 50 -23 57
-17 51 41 -7 73 -25 106 -69 128 l-38 19 -6 -27z"/>
<path d="M11798 1775 c-43 -29 -68 -79 -68 -134 0 -35 3 -41 21 -41 52 0 99
64 99 133 0 63 -10 71 -52 42z"/>
<path d="M652 1744 c-39 -31 -57 -64 -67 -120 -9 -56 6 -62 55 -23 47 38 66
88 53 136 l-8 32 -33 -25z"/>
<path d="M12105 1738 c-11 -56 2 -93 46 -132 44 -40 54 -43 63 -20 12 31 -15
96 -59 143 l-43 46 -7 -37z"/>
<path d="M4436 1718 c-21 -30 -20 -45 5 -58 16 -9 26 -8 45 5 29 19 31 50 5
65 -28 15 -38 13 -55 -12z"/>
<path d="M8313 1729 c-45 -17 -11 -84 39 -77 18 2 23 9 23 32 0 36 -30 58 -62
45z"/>
<path d="M6125 1695 c-31 -30 -32 -58 -3 -85 45 -41 108 -14 108 47 0 60 -61
82 -105 38z"/>
<path d="M6596 1705 c-24 -25 -29 -54 -12 -80 20 -31 49 -39 83 -23 39 18 45
78 11 102 -28 20 -62 20 -82 1z"/>
<path d="M4316 1648 c-22 -31 -20 -69 6 -124 23 -45 24 -46 64 -41 40 4 114
49 114 68 0 13 -45 29 -79 29 -22 0 -31 7 -41 29 -6 16 -20 37 -30 46 -17 15
-19 15 -34 -7z"/>
<path d="M8452 1658 c-5 -7 -17 -27 -25 -44 -13 -25 -25 -33 -71 -43 -31 -7
-56 -16 -56 -20 0 -10 40 -46 67 -60 12 -6 38 -11 57 -11 31 0 38 5 56 40 22
43 25 85 10 124 -10 29 -22 33 -38 14z"/>
<path d="M470 1626 c-43 -29 -64 -66 -64 -112 0 -61 20 -65 69 -12 44 49 56
79 47 123 -5 31 -9 31 -52 1z"/>
<path d="M12276 1627 c-8 -34 15 -96 50 -133 36 -39 49 -42 63 -16 23 43 -19
126 -80 158 -25 12 -27 12 -33 -9z"/>
<path d="M3814 1538 c24 -225 18 -314 -36 -498 -32 -113 -41 -134 -96 -223
-33 -54 -34 -59 -19 -75 13 -12 22 -14 35 -7 31 19 119 210 148 326 16 60 32
109 35 109 4 0 9 -82 11 -182 5 -192 16 -245 61 -313 66 -99 141 -144 244
-146 69 -2 113 6 113 21 0 4 -11 11 -24 14 -33 8 -83 52 -102 87 -8 16 -29 45
-46 65 -31 35 -31 36 -15 64 9 15 17 31 17 35 0 3 -24 17 -52 30 -68 30 -103
68 -128 137 -15 44 -39 189 -40 241 0 4 -8 7 -19 7 -17 0 -19 12 -23 138 -5
112 -9 146 -27 185 -31 67 -45 61 -37 -15z"/>
<path d="M8966 1577 c-25 -37 -46 -152 -46 -254 0 -77 -3 -93 -15 -93 -20 0
-22 -8 -35 -110 -14 -121 -44 -202 -86 -240 -19 -16 -43 -30 -53 -30 -10 0
-30 -9 -45 -21 -25 -20 -26 -22 -11 -45 19 -30 19 -48 -1 -65 -9 -7 -34 -40
-56 -72 -30 -44 -52 -64 -86 -79 -41 -18 -43 -21 -26 -31 10 -6 53 -11 94 -12
67 0 81 4 132 33 31 18 69 47 83 64 76 91 109 231 99 420 -8 129 5 158 26 66
19 -79 68 -214 106 -293 37 -77 66 -104 90 -84 8 6 14 15 14 18 0 4 -22 48
-50 97 -59 106 -103 254 -121 404 -10 89 -10 123 4 220 16 118 11 151 -17 107z"/>
<path d="M4137 1572 c-26 -28 -21 -59 8 -66 50 -13 89 32 59 65 -22 24 -46 24
-67 1z"/>
<path d="M8608 1579 c-21 -12 -24 -49 -6 -67 17 -17 63 -15 78 3 11 13 10 21
-7 43 -23 31 -40 36 -65 21z"/>
<path d="M916 1573 c-11 -11 -6 -62 10 -102 9 -23 31 -50 53 -65 36 -25 71
-34 71 -18 0 14 -41 114 -57 138 -17 27 -67 57 -77 47z"/>
<path d="M11830 1548 c-28 -26 -83 -145 -76 -165 5 -12 11 -11 38 3 66 33 98
83 98 150 0 41 -24 46 -60 12z"/>
<path d="M3970 1495 c47 -56 232 -103 299 -75 20 8 31 19 29 29 -3 14 -18 15
-103 12 -90 -3 -107 0 -164 23 -75 30 -77 31 -61 11z"/>
<path d="M8780 1484 c-41 -22 -56 -24 -159 -22 -91 2 -115 0 -119 -11 -15 -44
116 -55 220 -20 64 21 118 53 118 70 0 12 -8 10 -60 -17z"/>
<path d="M765 1448 c-32 -17 -85 -71 -101 -100 -14 -27 -20 -108 -7 -108 4 0
25 9 48 20 50 24 83 79 92 150 6 52 2 57 -32 38z"/>
<path d="M10505 1440 c-69 -16 -105 -53 -105 -107 0 -61 66 -96 105 -56 13 12
16 28 12 60 -6 54 14 68 79 59 50 -6 58 7 17 27 -40 20 -74 26 -108 17z"/>
<path d="M12004 1394 c8 -68 26 -98 81 -129 56 -34 65 -32 65 13 0 50 -28 100
-79 140 -64 48 -75 44 -67 -24z"/>
<path d="M2193 1425 c-49 -21 -42 -38 11 -30 27 4 52 2 66 -5 18 -10 21 -17
15 -47 -14 -74 59 -114 104 -57 73 92 -71 194 -196 139z"/>
<path d="M4188 1374 c-11 -10 5 -45 30 -64 26 -21 77 -27 87 -10 8 13 -21 66
-40 74 -21 8 -70 8 -77 0z"/>
<path d="M8539 1366 c-30 -17 -55 -64 -40 -79 5 -5 26 -6 46 -3 26 5 41 16 55
39 11 18 18 37 17 42 -5 16 -49 16 -78 1z"/>
<path d="M2043 1355 c-54 -38 -32 -115 32 -115 61 0 87 66 42 108 -27 26 -45
27 -74 7z"/>
<path d="M10682 1347 c-44 -46 -15 -107 50 -107 57 0 79 67 35 108 -30 28 -58
28 -85 -1z"/>
<path d="M1887 1241 c-34 -58 -8 -168 51 -210 46 -33 118 -29 170 9 48 35 64
61 60 98 -4 35 -51 49 -114 35 l-45 -10 -15 35 c-32 77 -76 94 -107 43z"/>
<path d="M10831 1245 c-11 -14 -23 -40 -26 -56 -6 -26 -10 -30 -28 -24 -74 24
-147 9 -147 -31 0 -31 32 -74 73 -99 114 -66 227 4 227 142 0 86 -55 123 -99
68z"/>
<path d="M3750 1225 c-15 -28 -84 -65 -121 -65 -64 0 -124 -29 -183 -89 l-58
-59 26 -18 c39 -25 113 -30 160 -10 95 40 195 151 212 235 8 39 -16 43 -36 6z"/>
<path d="M9016 1235 c-9 -23 33 -111 74 -159 77 -87 168 -126 251 -106 78 19
78 28 1 103 -60 57 -74 66 -118 72 -96 13 -127 26 -165 67 -30 33 -37 37 -43
23z"/>
<path d="M5145 1183 c-3 -21 -14 -59 -24 -84 -12 -31 -15 -52 -9 -63 12 -21
30 -20 44 2 18 29 37 128 30 156 -10 39 -34 32 -41 -11z"/>
<path d="M7620 1163 c0 -58 29 -143 48 -143 5 0 15 7 22 15 10 12 10 21 0 44
-6 16 -17 53 -24 83 -8 36 -17 54 -29 56 -15 3 -17 -5 -17 -55z"/>
<path d="M5012 1000 c-38 -9 -102 -66 -102 -90 0 -9 9 -25 20 -35 16 -14 30
-17 74 -12 l55 5 6 -31 c23 -110 110 -98 107 14 -2 101 -75 169 -160 149z"/>
<path d="M7694 981 c-79 -48 -86 -221 -9 -221 26 0 55 42 55 79 0 27 12 32 47
19 24 -9 38 -8 62 2 67 27 59 80 -19 120 -49 25 -96 25 -136 1z"/>
<path d="M1920 975 c-16 -20 -32 -181 -22 -220 14 -49 36 -37 45 25 5 30 14
82 22 114 9 40 11 66 4 78 -12 22 -32 23 -49 3z"/>
<path d="M10840 975 c-13 -16 -10 -43 26 -227 7 -35 32 -36 40 -2 9 35 -3 200
-16 225 -13 23 -33 25 -50 4z"/>
<path d="M2907 885 c-15 -14 -34 -39 -43 -56 -20 -39 -20 -135 -1 -181 33 -79
157 -160 264 -174 42 -5 70 -2 123 15 38 12 72 25 74 29 2 4 -39 7 -92 7 -86
0 -103 3 -148 27 -74 39 -114 76 -114 104 0 13 5 44 12 69 11 39 10 53 -5 94
-9 27 -17 58 -17 70 0 28 -19 27 -53 -4z"/>
<path d="M9835 853 c-20 -52 -22 -101 -11 -178 8 -50 8 -50 -34 -83 -73 -59
-215 -96 -281 -73 -53 18 -46 3 12 -24 137 -64 342 4 410 137 25 49 28 152 5
196 -13 26 -64 72 -79 72 -2 0 -13 -21 -22 -47z"/>
<path d="M4943 786 c-25 -22 -26 -25 -13 -55 15 -38 37 -51 67 -40 44 16 39
100 -7 112 -13 3 -30 -3 -47 -17z"/>
<path d="M4686 778 c-9 -12 -16 -28 -16 -36 0 -27 31 -72 60 -87 51 -26 160
-15 160 16 0 7 -10 9 -26 5 -14 -4 -42 -2 -61 5 -33 10 -34 13 -28 45 3 19 1
43 -5 54 -15 28 -64 27 -84 -2z"/>
<path d="M7786 779 c-20 -29 0 -82 33 -87 50 -8 80 58 43 91 -25 23 -58 21
-76 -4z"/>
<path d="M8040 785 c-7 -8 -10 -31 -8 -51 5 -47 -24 -70 -77 -60 -37 7 -45 -3
-19 -25 18 -15 88 -15 127 0 39 15 67 51 67 86 0 53 -60 86 -90 50z"/>
<path d="M2005 766 c-17 -7 -40 -31 -53 -55 -20 -36 -28 -41 -58 -41 -45 0
-100 -23 -113 -48 -10 -18 -6 -23 33 -43 65 -32 128 -101 210 -229 77 -121 98
-142 117 -123 8 8 5 20 -14 45 -63 84 -98 199 -100 325 -1 73 2 85 27 123 22
34 25 44 14 51 -17 11 -27 11 -63 -5z"/>
<path d="M10734 766 c-3 -8 5 -29 17 -46 50 -67 22 -291 -51 -413 -43 -70 -48
-87 -27 -87 21 0 59 47 118 145 61 102 136 183 197 214 48 24 50 32 21 59 -20
20 -61 32 -105 32 -16 0 -32 14 -54 46 -40 57 -103 84 -116 50z"/>
<path d="M3547 682 c-33 -36 -8 -92 41 -92 39 0 68 70 40 98 -18 18 -63 14
-81 -6z"/>
<path d="M9169 677 c-8 -17 -8 -34 -2 -54 8 -23 16 -29 44 -31 25 -2 40 3 53
17 18 19 18 21 -1 53 -25 44 -77 52 -94 15z"/>
<path d="M3381 576 c-29 -34 10 -93 46 -70 29 18 39 42 27 62 -14 22 -57 27
-73 8z"/>
<path d="M9356 574 c-21 -21 -20 -40 4 -64 25 -25 35 -25 60 0 17 17 19 24 9
43 -21 40 -47 47 -73 21z"/>
<path d="M4505 457 c-56 -27 -110 -82 -132 -136 -32 -76 6 -201 76 -248 60
-41 81 -25 36 28 -27 33 -40 86 -31 124 3 13 30 44 59 67 29 24 65 60 80 81
23 32 32 37 67 37 46 0 49 8 15 40 -37 34 -107 37 -170 7z"/>
<path d="M8135 449 c-35 -31 -39 -57 -6 -40 29 16 57 2 90 -45 18 -24 52 -57
75 -74 48 -32 56 -46 56 -95 0 -45 -16 -86 -42 -106 -22 -17 -17 -39 7 -39 20
0 83 58 101 92 22 42 33 125 23 163 -25 89 -133 175 -221 175 -39 0 -54 -6
-83 -31z"/>
<path d="M7695 354 c-54 -26 -129 -99 -122 -117 3 -9 13 -17 21 -17 24 0 156
94 156 111 0 30 -23 39 -55 23z"/>
<path d="M5056 344 c-3 -9 -3 -20 0 -25 10 -17 141 -99 158 -99 33 0 28 29
-10 62 -89 78 -134 98 -148 62z"/>
<path d="M5030 194 c-67 -68 -155 -119 -244 -141 -38 -9 -65 -21 -63 -27 2 -6
32 -12 66 -14 101 -5 185 32 261 115 44 48 60 73 60 94 0 42 -19 36 -80 -27z"/>
<path d="M7694 236 c-8 -22 19 -66 78 -125 40 -40 70 -60 118 -77 75 -27 171
-32 189 -10 10 12 2 16 -46 26 -86 18 -170 65 -244 136 -67 65 -85 75 -95 50z"/>
<path d="M4602 48 c-18 -18 -14 -36 8 -43 37 -12 70 35 34 49 -22 8 -28 8 -42
-6z"/>
<path d="M8157 53 c-24 -23 22 -64 48 -43 11 9 12 17 4 31 -10 19 -39 26 -52
12z"/>
</g>
</svg>
