<?xml version="1.0" standalone="no"?>
<!DOCTYPE svg PUBLIC "-//W3C//DTD SVG 20010904//EN"
 "http://www.w3.org/TR/2001/REC-SVG-20010904/DTD/svg10.dtd">
<svg version="1.0" xmlns="http://www.w3.org/2000/svg"
 width="1280.000000pt" height="640.000000pt" viewBox="0 0 1280.000000 640.000000"
 preserveAspectRatio="xMidYMid meet">
<metadata>
Created by potrace 1.15, written by Peter Selinger 2001-2017
</metadata>
<g transform="translate(0.000000,640.000000) scale(0.100000,-0.100000)"
fill="#000000" stroke="none">
<path d="M6336 6233 c-112 -132 -134 -201 -91 -287 60 -123 256 -129 322 -9
36 66 38 97 8 158 -24 49 -157 205 -175 205 -4 0 -33 -30 -64 -67z"/>
<path d="M5705 6151 c-57 -20 -77 -32 -295 -176 -180 -119 -251 -157 -297
-158 -20 -1 -28 -4 -20 -9 31 -21 126 21 372 162 99 57 202 112 229 122 61 24
133 25 175 4 40 -21 40 -28 0 -14 -42 14 -138 3 -200 -23 -98 -43 -153 -134
-185 -307 -20 -112 -46 -158 -107 -196 -88 -54 -188 -34 -230 47 -36 70 2 150
87 182 46 18 78 14 109 -13 20 -18 23 -71 5 -93 -7 -7 -4 -6 6 3 23 20 25 70
5 94 -58 70 -191 38 -240 -59 -40 -78 -5 -173 81 -217 93 -47 231 -5 294 91
15 22 39 89 56 155 30 118 50 162 92 201 60 57 196 73 258 31 18 -13 36 -30
40 -38 46 -98 54 -104 170 -143 69 -23 105 -60 117 -120 7 -36 23 -45 40 -22
19 27 16 94 -6 135 -25 48 -57 69 -136 91 -37 10 -76 26 -85 34 -10 9 -23 44
-30 78 -16 86 -43 125 -104 153 -62 29 -131 31 -201 5z"/>
<path d="M6894 6147 c-61 -30 -88 -68 -104 -154 -7 -34 -20 -69 -30 -78 -9 -8
-48 -24 -85 -34 -79 -22 -111 -43 -136 -91 -22 -41 -25 -108 -6 -135 17 -23
33 -14 40 22 12 60 48 97 117 120 116 39 124 45 170 143 36 77 219 81 298 7
42 -39 62 -83 92 -201 17 -66 41 -133 56 -155 63 -96 201 -138 294 -91 147 75
124 266 -37 309 -47 13 -95 0 -122 -33 -20 -24 -18 -74 5 -94 10 -9 13 -10 6
-2 -18 21 -15 74 6 92 30 27 62 31 108 13 85 -32 123 -112 87 -182 -42 -81
-142 -101 -230 -47 -61 38 -87 84 -107 196 -32 173 -87 264 -185 307 -62 26
-158 37 -200 23 -40 -14 -40 -7 0 14 42 21 114 20 175 -4 27 -10 130 -65 229
-122 246 -141 341 -183 372 -162 8 5 0 8 -20 9 -48 1 -117 39 -317 171 -226
150 -274 174 -359 179 -55 3 -75 0 -117 -20z"/>
<path d="M2630 5946 c138 -54 255 -155 353 -306 30 -47 109 -196 175 -330 130
-264 190 -355 276 -420 61 -46 104 -65 166 -74 l45 -7 -49 25 c-108 55 -186
159 -343 461 -138 266 -192 346 -317 471 -84 83 -116 108 -186 142 -47 23
-101 44 -120 47 l-35 5 35 -14z"/>
<path d="M10135 5935 c-139 -57 -292 -196 -406 -369 -33 -50 -94 -158 -136
-241 -156 -309 -248 -436 -356 -490 l-52 -26 45 7 c74 10 146 49 208 111 90
91 129 157 281 473 151 314 277 461 457 535 32 14 50 25 39 25 -11 0 -47 -12
-80 -25z"/>
<path d="M5785 5807 c86 -29 143 -74 164 -130 21 -54 15 -64 -36 -70 -115 -13
-144 -157 -32 -157 38 0 80 34 96 78 8 20 11 21 28 8 18 -13 18 -14 -8 -46
-36 -43 -43 -75 -24 -115 l16 -34 -97 -30 c-62 -19 -100 -27 -106 -21 -16 16
-51 11 -108 -15 -63 -30 -80 -30 -134 -6 -99 45 -100 201 -2 261 78 48 168 5
168 -79 0 -52 -27 -81 -74 -81 -37 0 -52 12 -59 50 -4 25 -4 25 -6 -2 -1 -32
33 -68 65 -68 86 0 133 98 84 177 -60 99 -232 77 -290 -38 -24 -45 -30 -144
-12 -190 16 -41 64 -91 105 -109 l39 -18 -44 -26 c-27 -16 -72 -29 -118 -36
-90 -13 -107 -25 -51 -37 l42 -8 -72 -59 -73 -59 -45 24 c-66 35 -94 81 -89
147 9 103 102 155 217 122 45 -13 54 -5 36 30 -40 77 -176 87 -258 19 -69 -57
-99 -178 -63 -262 16 -40 67 -92 112 -115 l33 -17 -83 -85 c-45 -47 -111 -110
-146 -140 -64 -55 -120 -147 -120 -196 0 -27 -27 -31 -235 -40 -292 -12 -476
48 -634 207 -73 74 -120 146 -153 235 -30 78 -32 242 -5 291 51 94 155 148
274 141 94 -6 166 -41 232 -113 144 -158 117 -385 -46 -385 -37 0 -49 6 -82
39 -21 21 -45 58 -54 82 -8 24 -16 35 -16 24 -1 -29 53 -119 83 -139 59 -38
116 -33 170 15 135 118 46 394 -159 495 -75 37 -204 46 -282 20 -159 -53 -245
-213 -214 -399 42 -253 232 -470 486 -554 69 -23 102 -27 235 -31 147 -4 211
2 368 34 l32 7 -24 -54 c-13 -30 -26 -61 -29 -70 -3 -9 -42 -27 -98 -44 -175
-55 -311 -34 -541 81 -116 58 -220 124 -473 298 -213 147 -375 233 -486 260
-82 20 -236 20 -309 1 -82 -22 -191 -79 -249 -131 -60 -54 -133 -160 -167
-245 -28 -68 -94 -291 -94 -317 0 -27 16 -3 86 128 125 236 201 325 325 385
95 45 164 58 279 53 174 -9 294 -61 637 -276 321 -201 531 -295 717 -323 91
-14 177 -3 281 35 57 21 65 22 60 8 -12 -32 -54 -207 -61 -257 -5 -38 -16 -61
-46 -95 -66 -75 -91 -133 -96 -228 -4 -77 -2 -87 27 -147 28 -57 65 -99 107
-123 11 -6 74 -211 74 -241 0 -3 -25 -19 -55 -35 -65 -34 -99 -71 -133 -145
-34 -74 -29 -190 13 -271 35 -70 134 -167 207 -203 117 -59 273 -77 319 -37
l24 20 -27 -11 c-35 -15 -96 0 -203 50 -106 50 -203 139 -246 227 -28 56 -31
71 -27 132 3 55 9 78 31 111 24 36 99 101 116 101 3 0 31 -53 61 -117 246
-526 746 -893 1325 -974 116 -17 354 -17 470 0 494 69 941 352 1212 768 54 82
163 297 163 321 0 16 15 15 53 -4 128 -65 176 -208 113 -337 -56 -115 -209
-230 -364 -273 -50 -14 -67 -15 -89 -5 l-28 11 24 -20 c19 -16 37 -20 96 -20
219 0 429 165 466 366 25 137 -64 285 -204 335 -31 11 -37 17 -32 34 3 11 15
57 26 102 21 80 22 82 74 117 177 117 186 342 19 516 -49 51 -54 62 -69 135
-9 44 -25 111 -36 148 -11 38 -19 71 -17 73 2 2 38 -10 79 -25 149 -58 247
-62 409 -17 172 47 323 123 626 311 326 204 443 254 619 262 173 9 294 -36
410 -152 69 -69 102 -120 218 -335 65 -119 71 -99 22 70 -76 267 -182 416
-354 499 -109 53 -171 64 -306 59 -184 -8 -308 -65 -630 -288 -310 -216 -467
-305 -633 -360 -156 -51 -240 -49 -406 11 l-81 29 -28 62 c-15 34 -25 63 -23
65 2 2 46 -6 97 -18 68 -16 139 -23 255 -27 201 -5 280 9 413 74 79 39 109 61
180 133 95 95 139 163 179 273 22 61 26 90 26 178 1 95 -2 111 -27 162 -35 71
-101 130 -176 159 -83 31 -214 25 -292 -14 -194 -95 -290 -354 -178 -482 99
-112 256 -32 274 141 l5 49 -13 -55 c-26 -110 -79 -170 -149 -170 -84 0 -138
65 -138 168 0 115 90 246 207 303 97 47 232 34 321 -31 119 -86 124 -296 12
-485 -19 -32 -62 -86 -95 -120 -182 -185 -406 -242 -789 -202 l-109 12 -12 40
c-22 74 -53 121 -116 176 -34 30 -100 92 -145 139 l-83 85 33 17 c45 23 96 75
112 115 36 84 6 205 -63 262 -82 68 -218 58 -258 -19 -18 -35 -9 -43 36 -30
115 33 208 -19 217 -122 5 -66 -23 -112 -89 -147 l-45 -24 -73 59 -72 59 42 8
c56 12 39 24 -51 37 -46 7 -91 20 -118 36 l-44 26 39 18 c41 18 89 68 105 109
18 46 12 145 -12 190 -60 118 -240 137 -295 32 -41 -80 6 -171 89 -171 32 0
66 36 65 68 -2 27 -2 27 -6 2 -7 -38 -22 -50 -59 -50 -47 0 -74 29 -74 81 0
84 90 127 168 79 98 -60 97 -216 -2 -261 -54 -24 -71 -24 -134 6 -57 26 -92
31 -108 15 -6 -6 -44 2 -106 21 l-97 30 16 34 c19 40 12 72 -24 115 -26 32
-26 33 -8 46 17 13 20 12 28 -8 16 -45 58 -78 97 -78 111 0 81 144 -33 157
-51 6 -57 16 -36 70 21 56 78 101 164 130 l40 13 -40 -6 c-98 -14 -186 -91
-200 -174 -4 -22 -12 -40 -19 -40 -6 0 -28 -12 -49 -26 -28 -18 -54 -26 -96
-29 -99 -5 -194 -59 -221 -126 -16 -37 -44 -37 -60 0 -27 67 -122 121 -221
126 -42 3 -68 11 -96 29 -21 14 -43 26 -49 26 -7 0 -15 18 -19 40 -14 83 -102
160 -200 174 l-40 6 40 -13z m165 -258 c0 -6 -13 -24 -30 -40 -25 -25 -33 -28
-50 -19 -25 13 -25 25 0 50 21 21 80 28 80 9z m980 -9 c25 -25 25 -37 0 -50
-17 -9 -25 -6 -50 19 -17 16 -30 34 -30 40 0 19 59 12 80 -9z m-670 -113 c25
-13 45 -27 45 -33 0 -5 -36 -12 -80 -16 -44 -4 -90 -10 -102 -13 -22 -5 -22
-4 -8 30 8 19 15 43 15 54 0 17 4 18 43 10 23 -5 62 -20 87 -32z m431 -49 c10
-18 9 -20 -6 -15 -9 4 -55 10 -101 14 -47 3 -87 9 -89 14 -8 12 57 47 116 62
l54 14 7 -34 c5 -19 13 -44 19 -55z m-639 40 c-7 -7 -12 -8 -12 -2 0 14 12 26
19 19 2 -3 -1 -11 -7 -17z m708 1 c0 -6 -4 -7 -10 -4 -5 3 -10 11 -10 16 0 6
5 7 10 4 6 -3 10 -11 10 -16z m-1781 -776 c-18 -25 -49 -76 -71 -112 -43 -74
-53 -55 -13 25 20 41 98 134 112 134 2 0 -10 -21 -28 -47z m2878 -13 c29 -32
73 -118 73 -144 0 -13 -15 4 -38 45 -22 36 -54 88 -72 115 -27 40 -29 45 -10
29 13 -11 34 -31 47 -45z m320 -927 c48 -100 32 -214 -41 -282 l-27 -25 8 75
c5 40 8 126 8 191 0 131 5 135 52 41z m-3493 -238 c4 -38 4 -39 -11 -20 -46
60 -57 161 -26 237 l18 43 7 -110 c4 -60 9 -128 12 -150z"/>
<path d="M4698 5260 c-109 -33 -159 -132 -105 -211 32 -48 89 -67 139 -46 68
29 96 114 51 159 -26 25 -53 18 -53 -14 0 -59 -60 -90 -82 -43 -21 46 41 107
110 109 56 1 123 -44 200 -135 37 -43 71 -79 76 -79 5 0 1 10 -10 23 -11 12
-37 48 -58 79 -51 76 -125 144 -172 157 -45 12 -58 13 -96 1z"/>
<path d="M7996 5256 c-47 -18 -114 -81 -164 -156 -20 -30 -45 -65 -56 -77 -11
-13 -15 -23 -10 -23 5 0 39 36 76 79 77 91 144 136 200 135 69 -2 131 -63 110
-109 -22 -47 -82 -16 -82 43 0 32 -27 39 -53 14 -45 -45 -17 -130 51 -159 32
-13 42 -14 77 -2 46 16 85 67 85 111 0 103 -129 182 -234 144z"/>
<path d="M4113 5050 c0 -41 2 -58 4 -37 2 20 2 54 0 75 -2 20 -4 3 -4 -38z"/>
<path d="M8711 5104 c0 -11 3 -14 6 -6 3 7 2 16 -1 19 -3 4 -6 -2 -5 -13z"/>
<path d="M3514 4226 c-64 -16 -111 -44 -162 -100 -48 -52 -62 -78 -109 -199
-81 -210 -134 -270 -262 -298 -142 -30 -342 80 -386 212 -47 141 25 269 152
269 83 0 140 -39 162 -110 l11 -35 -5 35 c-16 108 -166 166 -271 105 -61 -36
-94 -106 -94 -199 0 -92 28 -153 102 -222 168 -159 401 -165 541 -15 49 52 80
107 127 226 46 115 67 152 112 195 79 78 188 88 418 39 264 -55 437 -78 300
-39 -36 10 -129 41 -206 68 -143 51 -276 83 -343 81 -20 0 -59 -6 -87 -13z"/>
<path d="M9106 4225 c-37 -8 -134 -37 -215 -66 -80 -28 -175 -60 -211 -70
l-65 -19 69 6 c37 3 121 17 185 31 272 57 349 65 434 39 98 -29 136 -76 217
-270 56 -133 102 -202 168 -253 96 -73 242 -83 366 -25 79 37 176 125 204 185
41 89 36 194 -13 269 -82 124 -298 93 -329 -47 -5 -24 -2 -22 16 14 32 63 66
84 141 89 52 3 67 0 97 -20 80 -53 104 -177 54 -277 -51 -102 -188 -182 -314
-184 -83 -2 -133 16 -187 66 -56 52 -81 95 -133 229 -86 224 -174 303 -350
313 -36 3 -96 -2 -134 -10z"/>
<path d="M3673 3950 c-84 -18 -169 -80 -192 -143 -17 -43 -13 -108 7 -147 22
-42 76 -73 112 -65 30 8 76 49 96 87 24 46 15 44 -15 -3 -34 -54 -79 -78 -116
-61 -62 28 -78 124 -32 185 64 84 189 100 363 47 205 -64 361 -74 458 -32 47
22 71 49 81 97 l7 30 -20 -31 c-25 -39 -67 -54 -146 -54 -62 0 -230 32 -365
69 -89 25 -181 33 -238 21z"/>
<path d="M8985 3946 c-33 -7 -114 -28 -180 -45 -154 -41 -295 -52 -348 -26
-20 9 -37 20 -37 24 0 4 -7 16 -15 27 -14 18 -15 17 -9 -11 11 -46 32 -72 77
-94 91 -44 265 -34 444 24 105 35 236 44 297 21 52 -20 101 -71 111 -115 13
-62 -36 -141 -88 -141 -11 0 -39 20 -63 44 -53 52 -58 46 -9 -11 41 -48 72
-59 120 -39 76 32 102 154 49 232 -33 48 -46 59 -109 89 -63 30 -160 39 -240
21z"/>
<path d="M2891 3927 c-13 -21 -12 -21 5 -5 10 10 16 20 13 22 -3 3 -11 -5 -18
-17z"/>
<path d="M9930 3926 c0 -2 8 -10 18 -17 15 -13 16 -12 3 4 -13 16 -21 21 -21
13z"/>
<path d="M3075 3304 c-33 -2 -222 -8 -420 -14 -435 -13 -1365 -45 -1905 -65
-217 -8 -437 -15 -487 -15 -56 0 -93 -4 -93 -10 0 -6 37 -10 93 -10 50 0 268
-7 482 -15 215 -8 653 -24 975 -35 322 -11 738 -25 925 -32 187 -6 511 -12
720 -12 365 -1 383 0 460 22 78 22 155 63 155 82 0 20 -78 60 -155 81 -73 20
-108 22 -385 24 -168 1 -332 1 -365 -1z"/>
<path d="M9105 3295 c-106 -17 -215 -66 -215 -95 0 -32 109 -78 230 -96 88
-14 163 -15 465 -10 419 7 1303 35 2534 81 217 8 437 15 488 15 55 0 93 4 93
10 0 6 -38 10 -93 10 -51 0 -271 7 -488 15 -2141 80 -2853 96 -3014 70z"/>
<path d="M2840 2826 c-111 -32 -225 -122 -266 -211 -34 -72 -33 -172 2 -243
48 -96 155 -130 254 -79 52 26 78 59 85 107 l5 35 -11 -35 c-22 -71 -79 -110
-162 -110 -127 0 -199 128 -152 269 44 132 244 242 386 212 129 -28 181 -87
263 -301 47 -121 74 -166 129 -217 59 -55 92 -70 174 -85 92 -15 206 6 396 73
78 28 171 59 207 69 137 39 -36 16 -300 -39 -230 -49 -339 -39 -418 39 -45 43
-66 80 -112 195 -69 173 -130 254 -227 302 -65 31 -181 40 -253 19z"/>
<path d="M9772 2822 c-109 -39 -177 -119 -252 -298 -81 -194 -119 -241 -217
-270 -85 -26 -162 -18 -434 39 -64 14 -148 28 -185 31 l-69 6 65 -19 c36 -10
136 -44 224 -74 193 -67 297 -85 387 -68 149 30 220 103 299 309 52 134 77
177 133 229 54 50 104 68 187 66 126 -2 263 -82 314 -184 50 -100 26 -224 -54
-277 -30 -20 -45 -23 -97 -20 -75 5 -109 26 -141 89 -18 36 -21 38 -16 14 23
-103 160 -158 264 -105 99 51 135 203 78 327 -28 60 -125 148 -205 185 -87 41
-199 49 -281 20z"/>
<path d="M3541 2793 c-63 -33 -90 -130 -57 -206 19 -44 71 -92 131 -118 67
-31 189 -30 295 0 127 37 302 71 366 71 79 0 121 -15 146 -54 l20 -31 -7 30
c-10 48 -34 75 -81 97 -97 42 -253 32 -458 -32 -174 -53 -299 -37 -363 47 -46
61 -30 157 32 185 37 17 82 -7 116 -61 30 -47 39 -49 15 -3 -20 38 -66 79 -96
87 -15 3 -39 -2 -59 -12z"/>
<path d="M9214 2800 c-20 -8 -84 -77 -84 -91 0 -3 20 13 44 37 24 24 52 44 63
44 52 0 101 -79 88 -141 -10 -44 -59 -95 -111 -115 -61 -23 -192 -14 -297 21
-179 58 -353 68 -444 24 -45 -22 -66 -48 -77 -94 -6 -28 -5 -29 9 -11 8 11 15
23 15 27 0 4 17 15 37 24 53 26 194 15 348 -26 254 -67 321 -71 420 -24 62 30
76 41 109 89 53 78 27 200 -49 232 -39 16 -42 16 -71 4z"/>
<path d="M9939 2483 c-13 -16 -12 -17 4 -4 16 13 21 21 13 21 -2 0 -10 -8 -17
-17z"/>
<path d="M2891 2473 c7 -12 15 -20 18 -17 3 2 -3 12 -13 22 -17 16 -18 16 -5
-5z"/>
<path d="M4391 2249 c-173 -30 -390 -131 -694 -321 -343 -215 -463 -267 -637
-276 -115 -5 -184 8 -279 53 -125 60 -205 155 -327 390 -95 182 -105 179 -50
-13 19 -66 46 -147 60 -181 34 -85 107 -191 167 -245 58 -52 167 -109 249
-131 73 -19 227 -19 309 1 111 27 273 113 486 260 348 240 481 316 658 376
159 54 291 41 494 -48 32 -14 59 -27 61 -29 2 -1 -7 -23 -19 -47 l-21 -44 -87
20 c-70 16 -121 20 -281 20 -186 1 -199 0 -275 -26 -256 -87 -444 -302 -486
-555 -31 -186 55 -346 214 -399 78 -26 207 -17 282 20 160 79 263 284 211 420
-19 49 -72 102 -112 112 -32 8 -77 -1 -110 -22 -30 -20 -84 -110 -83 -139 0
-11 8 0 16 24 9 24 33 61 54 82 33 33 45 39 82 39 163 0 190 -227 46 -385 -66
-72 -138 -107 -232 -113 -119 -7 -223 47 -274 141 -27 49 -25 213 5 291 33 89
80 161 153 235 158 159 342 219 634 207 83 -3 169 -9 191 -12 l41 -6 5 -67
c11 -154 126 -271 368 -373 47 -20 96 -39 110 -42 l25 -6 -25 11 c-199 91
-274 133 -334 189 -82 77 -116 142 -116 222 0 66 -2 65 96 47 121 -21 134 -27
134 -57 0 -42 46 -126 92 -167 63 -58 120 -78 213 -79 276 -1 390 259 197 449
-57 57 -143 98 -244 119 -146 30 -260 18 -376 -41 l-73 -36 -107 51 c-59 28
-132 58 -162 67 -71 20 -180 27 -249 14z m984 -111 c91 -26 143 -56 197 -117
79 -88 87 -179 22 -251 -49 -54 -104 -73 -197 -69 -89 5 -142 35 -188 106 -50
81 -30 148 45 146 72 -2 126 -53 112 -107 -8 -33 -53 -47 -71 -22 -16 21 -25
20 -25 -2 0 -65 85 -85 138 -33 98 99 -19 266 -174 248 -57 -6 -93 -31 -120
-83 l-20 -40 -105 34 c-57 19 -106 36 -108 38 -4 4 41 84 48 84 3 0 31 -7 61
-15 30 -8 84 -14 120 -14 l65 1 -72 13 c-90 17 -144 36 -136 48 11 18 95 48
156 56 83 11 167 4 252 -21z"/>
<path d="M8270 2254 c-72 -14 -147 -41 -253 -92 -117 -55 -119 -56 -145 -38
-52 34 -129 66 -182 76 -174 33 -387 -21 -492 -125 -148 -146 -123 -340 54
-421 81 -37 196 -40 269 -7 135 60 218 220 163 314 -42 71 -125 97 -209 65
-115 -44 -156 -163 -83 -237 53 -52 138 -32 138 33 0 22 -9 23 -25 2 -18 -25
-63 -11 -71 22 -14 54 40 105 112 107 75 2 95 -65 45 -146 -46 -71 -99 -101
-188 -106 -93 -4 -148 15 -197 69 -42 47 -53 94 -36 156 14 50 80 130 134 164
90 55 246 84 369 69 69 -9 177 -51 177 -69 0 -5 -24 -14 -52 -20 -132 -27
-137 -30 -48 -25 47 2 95 7 107 11 18 5 26 -1 42 -27 12 -19 21 -39 21 -44 0
-6 -45 -26 -101 -44 -55 -18 -99 -35 -96 -37 2 -2 33 2 68 10 35 8 81 16 102
19 l37 6 0 -58 c0 -78 -34 -144 -114 -219 -62 -58 -198 -136 -309 -177 -26
-10 -46 -20 -43 -22 7 -7 134 45 227 93 108 56 200 137 236 207 15 30 28 77
31 116 l7 66 110 12 c385 40 608 -17 790 -202 114 -116 174 -251 175 -391 0
-98 -30 -170 -92 -214 -89 -65 -224 -78 -321 -31 -117 57 -207 188 -207 303 0
103 54 168 138 168 70 0 123 -60 149 -170 l13 -55 -5 49 c-18 173 -175 253
-274 141 -112 -128 -16 -387 178 -482 78 -39 209 -45 292 -14 75 29 141 88
176 159 25 51 28 67 27 162 0 88 -4 117 -26 178 -40 110 -84 178 -179 273 -71
72 -101 94 -180 133 -135 66 -213 80 -419 73 -116 -4 -190 -12 -250 -26 -47
-11 -90 -21 -96 -21 -5 0 -20 20 -31 44 l-22 44 122 47 c218 85 301 91 469 35
166 -56 323 -145 633 -360 322 -223 446 -280 630 -288 135 -5 197 6 306 59
172 83 278 232 354 499 49 169 43 189 -22 70 -116 -215 -149 -266 -218 -335
-116 -116 -237 -161 -410 -152 -176 8 -293 58 -619 262 -302 188 -453 263
-626 312 -83 23 -211 36 -260 27z"/>
<path d="M3557 1576 c-90 -25 -179 -101 -266 -229 -18 -26 -81 -149 -141 -273
-60 -124 -135 -264 -166 -312 -99 -153 -216 -254 -354 -308 l-35 -14 35 5 c19
3 73 24 120 47 70 34 102 59 186 142 125 125 179 205 317 471 157 303 236 408
343 460 54 27 37 31 -39 11z"/>
<path d="M5939 1561 c-43 -44 -41 -98 6 -140 20 -17 41 -31 48 -31 7 0 24 -7
40 -14 40 -22 33 -5 -18 41 -53 47 -56 67 -15 88 23 12 30 22 30 44 0 49 -47
55 -91 12z"/>
<path d="M6783 1583 c-7 -2 -13 -18 -13 -34 0 -22 7 -32 30 -44 41 -21 38 -41
-15 -88 -25 -22 -45 -45 -45 -50 0 -6 5 -5 13 0 6 6 29 16 49 22 84 27 115
116 59 172 -28 27 -50 34 -78 22z"/>
<path d="M9237 1565 c108 -54 200 -181 356 -490 42 -82 103 -191 136 -241 116
-175 279 -322 416 -373 78 -29 103 -26 31 4 -180 74 -306 221 -457 535 -152
316 -191 382 -281 473 -62 62 -134 101 -208 111 l-45 7 52 -26z"/>
<path d="M5680 1464 c-27 -11 -60 -47 -60 -65 0 -16 11 -18 118 -16 111 2 120
1 172 -27 37 -19 91 -66 165 -142 113 -117 157 -151 88 -66 -22 26 -59 76 -83
111 -92 137 -190 202 -313 207 -40 2 -79 1 -87 -2z"/>
<path d="M6943 1452 c-86 -31 -154 -90 -226 -197 -22 -33 -58 -81 -80 -107
-69 -85 -25 -51 88 66 74 76 128 123 165 142 52 28 61 29 173 27 106 -2 117 0
117 16 0 10 -11 28 -25 41 -35 33 -137 39 -212 12z"/>
<path d="M5281 1449 c-96 -9 -174 -48 -216 -107 -28 -40 -30 -50 -30 -127 0
-77 2 -87 30 -127 43 -60 95 -88 169 -88 41 0 68 6 91 20 31 19 61 65 47 74
-4 2 -33 -1 -64 -7 -111 -20 -188 29 -196 125 -5 66 22 111 88 148 39 22 57
25 135 24 115 -1 202 -32 401 -144 164 -92 287 -150 318 -150 14 1 9 5 -15 14
-50 18 -132 64 -276 158 -133 85 -279 159 -358 180 -34 10 -73 12 -124 7z"/>
<path d="M6208 1423 c-45 -47 -58 -79 -58 -147 0 -64 30 -127 80 -167 46 -36
82 -45 103 -25 23 24 10 53 -38 81 -108 63 -133 176 -59 265 36 43 15 37 -28
-7z"/>
<path d="M6564 1430 c74 -89 49 -202 -59 -265 -48 -28 -61 -57 -38 -81 33 -33
119 19 160 96 25 47 31 128 12 177 -11 29 -77 103 -92 103 -5 0 3 -14 17 -30z"/>
<path d="M7372 1435 c-91 -30 -194 -83 -337 -175 -143 -92 -224 -138 -274
-156 -24 -9 -29 -13 -15 -14 31 0 154 58 318 150 199 112 286 143 401 144 78
1 96 -2 135 -24 66 -37 93 -82 88 -148 -8 -96 -85 -145 -196 -125 -31 6 -60 9
-64 7 -14 -9 16 -55 47 -74 23 -14 50 -20 91 -20 74 0 126 28 169 88 28 40 30
50 30 127 0 77 -2 87 -30 127 -66 94 -230 135 -363 93z"/>
<path d="M4113 1350 c0 -41 2 -58 4 -37 2 20 2 54 0 75 -2 20 -4 3 -4 -38z"/>
<path d="M4633 1321 c-110 -69 -64 -220 77 -252 82 -19 173 37 252 155 22 33
50 71 61 84 11 12 16 22 10 22 -6 0 -38 -34 -73 -75 -65 -77 -138 -134 -174
-136 -66 -4 -103 12 -132 57 -35 52 25 103 60 52 9 -12 16 -33 16 -46 0 -28
24 -39 46 -21 63 52 16 164 -73 175 -27 4 -47 -1 -70 -15z"/>
<path d="M5815 1320 c-16 -18 -16 -21 -2 -43 9 -13 29 -27 46 -30 16 -4 55
-29 85 -56 59 -54 104 -81 133 -81 13 0 9 6 -13 19 -17 10 -49 47 -71 82 -46
73 -76 103 -116 118 -38 15 -41 14 -62 -9z"/>
<path d="M6915 1326 c-36 -16 -70 -53 -115 -125 -19 -29 -48 -62 -64 -72 -22
-14 -26 -19 -13 -19 29 0 74 27 133 81 30 27 69 52 85 56 17 3 37 17 46 30 14
22 14 25 -2 43 -21 23 -29 24 -70 6z"/>
<path d="M8061 1327 c-62 -31 -85 -117 -44 -159 26 -25 53 -18 53 14 0 13 7
34 16 46 35 51 95 0 60 -52 -29 -45 -66 -61 -132 -57 -36 2 -109 59 -174 136
-35 41 -67 75 -73 75 -6 0 -1 -10 10 -22 11 -13 39 -51 61 -84 113 -170 250
-207 355 -96 91 95 -18 258 -132 199z"/>
<path d="M8711 1294 c0 -11 3 -14 6 -6 3 7 2 16 -1 19 -3 4 -6 -2 -5 -13z"/>
<path d="M5321 1252 c-20 -14 -5 -19 89 -32 128 -17 234 -44 429 -110 215 -73
296 -90 409 -89 l87 2 -95 7 c-124 10 -189 28 -400 110 -96 37 -209 77 -250
89 -82 24 -247 38 -269 23z"/>
<path d="M7310 1253 c-67 -11 -191 -52 -350 -113 -211 -82 -276 -100 -400
-110 l-95 -7 87 -2 c113 -1 194 16 409 89 195 66 301 93 429 110 93 13 109 18
89 31 -14 9 -122 10 -169 2z"/>
<path d="M5536 1145 c-81 -29 -128 -101 -128 -196 0 -117 69 -198 176 -207 64
-5 108 15 136 61 34 55 18 141 -29 167 -54 29 -122 -4 -120 -57 2 -28 2 -28 6
-3 7 38 22 50 59 50 46 0 74 -29 74 -78 0 -120 -166 -136 -225 -22 -31 60 -10
161 40 194 45 30 97 30 153 2 62 -31 81 -32 116 -5 32 25 33 39 2 39 -13 0
-35 9 -49 20 -62 49 -137 62 -211 35z"/>
<path d="M7112 1145 c-18 -8 -45 -24 -59 -35 -14 -11 -36 -20 -49 -20 -31 0
-30 -14 2 -39 35 -27 54 -26 116 5 108 55 208 -5 208 -126 0 -100 -96 -175
-181 -140 -40 17 -59 46 -59 92 0 49 28 78 74 78 37 0 52 -12 59 -50 4 -25 4
-25 6 3 2 53 -66 86 -120 57 -47 -26 -63 -112 -29 -167 61 -101 233 -76 290
42 27 56 30 147 5 199 -45 94 -169 142 -263 101z"/>
<path d="M6003 988 c-51 -25 -51 -102 0 -156 22 -23 22 -24 2 -38 -18 -13 -20
-12 -28 8 -4 13 -20 35 -34 51 -49 50 -133 29 -133 -34 0 -50 59 -99 120 -99
33 0 38 -17 19 -67 -22 -58 -81 -103 -169 -130 l-45 -13 43 5 c59 7 135 48
166 88 14 18 31 54 37 80 7 26 18 47 24 47 6 0 28 12 49 27 30 19 54 27 97 29
122 6 229 85 229 168 0 37 -14 39 -46 4 -34 -36 -137 -88 -175 -88 -23 0 -28
5 -33 35 -13 66 -74 108 -123 83z m57 -89 c0 -6 -4 -7 -10 -4 -5 3 -10 11 -10
16 0 6 5 7 10 4 6 -3 10 -11 10 -16z m-139 -78 c36 -36 37 -51 3 -51 -50 0
-87 38 -63 66 17 20 27 17 60 -15z"/>
<path d="M6734 990 c-28 -11 -52 -46 -60 -87 -5 -27 -11 -33 -33 -33 -38 0
-141 52 -175 88 -32 35 -46 33 -46 -4 0 -83 107 -162 229 -168 43 -2 67 -10
97 -29 21 -15 43 -27 49 -27 6 0 17 -21 24 -47 6 -26 23 -62 37 -80 31 -40
107 -81 166 -88 l43 -5 -45 13 c-88 27 -147 72 -169 130 -19 50 -14 67 19 67
62 0 120 49 120 101 0 61 -85 81 -133 32 -14 -16 -30 -38 -34 -51 -8 -20 -10
-21 -28 -8 -20 14 -20 15 2 38 52 56 51 132 -3 157 -29 13 -32 13 -60 1z m18
-92 c-7 -7 -12 -8 -12 -2 0 14 12 26 19 19 2 -3 -1 -11 -7 -17z m187 -62 c24
-28 -13 -66 -63 -66 -34 0 -33 15 3 51 33 32 43 35 60 15z"/>
<path d="M5205 836 c-37 -17 -80 -62 -94 -99 -39 -103 44 -216 159 -217 51 0
87 20 100 56 11 29 -5 80 -28 89 -14 5 -14 4 1 -13 22 -24 22 -75 0 -94 -31
-27 -63 -31 -109 -13 -123 47 -136 185 -23 243 49 26 96 24 153 -4 71 -37 97
-80 120 -207 33 -172 81 -254 179 -301 62 -30 148 -42 200 -28 45 12 47 8 7
-13 -39 -20 -119 -19 -177 3 -27 10 -122 61 -213 114 -268 155 -350 191 -388
168 -14 -8 -13 -9 8 -5 37 8 140 -45 332 -173 92 -62 196 -126 230 -143 166
-84 318 -25 348 135 15 79 35 99 115 116 98 20 155 81 155 165 0 71 -41 100
-53 38 -12 -62 -48 -96 -127 -123 -115 -40 -111 -36 -160 -139 -15 -34 -60
-55 -124 -59 -152 -10 -218 55 -271 269 -28 114 -56 163 -114 203 -66 46 -163
60 -226 32z"/>
<path d="M7436 840 c-43 -13 -101 -57 -130 -99 -15 -21 -36 -80 -51 -140 -53
-214 -119 -279 -271 -269 -64 4 -109 25 -124 59 -49 103 -45 99 -160 139 -79
27 -115 61 -127 123 -12 62 -53 33 -53 -38 0 -84 57 -145 155 -165 80 -17 100
-37 115 -116 30 -160 182 -219 348 -135 34 17 138 81 230 143 192 128 295 181
332 173 21 -4 22 -3 8 5 -38 23 -120 -13 -388 -168 -91 -53 -186 -104 -213
-114 -58 -22 -138 -23 -177 -3 -40 21 -38 25 7 13 52 -14 138 -2 200 28 98 47
146 129 179 301 23 126 48 169 116 204 61 31 107 33 157 7 113 -58 100 -196
-23 -243 -46 -18 -78 -14 -108 13 -23 19 -23 70 -1 94 15 17 15 18 1 13 -23
-9 -39 -60 -28 -89 33 -88 192 -69 247 29 65 115 -24 247 -164 244 -26 0 -61
-5 -77 -9z"/>
</g>
</svg>
